%TF.GenerationSoftware,KiCad,Pcbnew,8.0.7-8.0.7-0~ubuntu22.04.1*%
%TF.CreationDate,2024-12-29T16:10:50-07:00*%
%TF.ProjectId,MotionDetector,4d6f7469-6f6e-4446-9574-6563746f722e,A*%
%TF.SameCoordinates,Original*%
%TF.FileFunction,Soldermask,Top*%
%TF.FilePolarity,Negative*%
%FSLAX46Y46*%
G04 Gerber Fmt 4.6, Leading zero omitted, Abs format (unit mm)*
G04 Created by KiCad (PCBNEW 8.0.7-8.0.7-0~ubuntu22.04.1) date 2024-12-29 16:10:50*
%MOMM*%
%LPD*%
G01*
G04 APERTURE LIST*
%ADD10C,7.600000*%
%ADD11C,1.734000*%
%ADD12R,1.500000X1.500000*%
%ADD13C,1.500000*%
G04 APERTURE END LIST*
D10*
%TO.C,REF\u002A\u002A*%
X145000000Y-97500000D03*
%TD*%
D11*
%TO.C,J2*%
X124050000Y-51620000D03*
X124050000Y-54160000D03*
X124050000Y-56700000D03*
X124050000Y-59240000D03*
X124050000Y-61780000D03*
X124050000Y-64320000D03*
X124050000Y-66860000D03*
X124050000Y-69400000D03*
X124050000Y-71940000D03*
X124050000Y-74480000D03*
X124050000Y-77020000D03*
X124050000Y-79560000D03*
X124050000Y-82100000D03*
X124050000Y-84640000D03*
X124050000Y-87180000D03*
X124050000Y-89720000D03*
X124050000Y-92260000D03*
X124050000Y-94800000D03*
X124050000Y-97340000D03*
X124050000Y-99880000D03*
%TD*%
D10*
%TO.C,REF\u002A\u002A*%
X110000000Y-55000000D03*
%TD*%
%TO.C,REF\u002A\u002A*%
X145000000Y-55000000D03*
%TD*%
%TO.C,REF\u002A\u002A*%
X110000000Y-97500000D03*
%TD*%
D11*
%TO.C,J1*%
X101350000Y-51620000D03*
X101350000Y-54160000D03*
X101350000Y-56700000D03*
X101350000Y-59240000D03*
X101350000Y-61780000D03*
X101350000Y-64320000D03*
X101350000Y-66860000D03*
X101350000Y-69400000D03*
X101350000Y-71940000D03*
X101350000Y-74480000D03*
X101350000Y-77020000D03*
X101350000Y-79560000D03*
X101350000Y-82100000D03*
X101350000Y-84640000D03*
X101350000Y-87180000D03*
X101350000Y-89720000D03*
X101350000Y-92260000D03*
X101350000Y-94800000D03*
X101350000Y-97340000D03*
X101350000Y-99880000D03*
%TD*%
D12*
%TO.C,J3*%
X129000000Y-79040000D03*
D13*
X129000000Y-76500000D03*
X129000000Y-73960000D03*
%TD*%
M02*
