%TF.GenerationSoftware,KiCad,Pcbnew,8.0.7-8.0.7-0~ubuntu22.04.1*%
%TF.CreationDate,2024-12-29T16:10:50-07:00*%
%TF.ProjectId,MotionDetector,4d6f7469-6f6e-4446-9574-6563746f722e,A*%
%TF.SameCoordinates,Original*%
%TF.FileFunction,Legend,Top*%
%TF.FilePolarity,Positive*%
%FSLAX46Y46*%
G04 Gerber Fmt 4.6, Leading zero omitted, Abs format (unit mm)*
G04 Created by KiCad (PCBNEW 8.0.7-8.0.7-0~ubuntu22.04.1) date 2024-12-29 16:10:50*
%MOMM*%
%LPD*%
G01*
G04 APERTURE LIST*
%ADD10C,0.300000*%
%ADD11C,0.100000*%
%ADD12C,0.254000*%
%ADD13C,0.200000*%
G04 APERTURE END LIST*
D10*
X143685282Y-89445489D02*
X143685282Y-88945489D01*
X144470996Y-88731203D02*
X144470996Y-89445489D01*
X144470996Y-89445489D02*
X142970996Y-89445489D01*
X142970996Y-89445489D02*
X142970996Y-88731203D01*
X144399568Y-88159774D02*
X144470996Y-87945489D01*
X144470996Y-87945489D02*
X144470996Y-87588346D01*
X144470996Y-87588346D02*
X144399568Y-87445489D01*
X144399568Y-87445489D02*
X144328139Y-87374060D01*
X144328139Y-87374060D02*
X144185282Y-87302631D01*
X144185282Y-87302631D02*
X144042425Y-87302631D01*
X144042425Y-87302631D02*
X143899568Y-87374060D01*
X143899568Y-87374060D02*
X143828139Y-87445489D01*
X143828139Y-87445489D02*
X143756710Y-87588346D01*
X143756710Y-87588346D02*
X143685282Y-87874060D01*
X143685282Y-87874060D02*
X143613853Y-88016917D01*
X143613853Y-88016917D02*
X143542425Y-88088346D01*
X143542425Y-88088346D02*
X143399568Y-88159774D01*
X143399568Y-88159774D02*
X143256710Y-88159774D01*
X143256710Y-88159774D02*
X143113853Y-88088346D01*
X143113853Y-88088346D02*
X143042425Y-88016917D01*
X143042425Y-88016917D02*
X142970996Y-87874060D01*
X142970996Y-87874060D02*
X142970996Y-87516917D01*
X142970996Y-87516917D02*
X143042425Y-87302631D01*
X144470996Y-86659775D02*
X142970996Y-86659775D01*
X142970996Y-86659775D02*
X142970996Y-86088346D01*
X142970996Y-86088346D02*
X143042425Y-85945489D01*
X143042425Y-85945489D02*
X143113853Y-85874060D01*
X143113853Y-85874060D02*
X143256710Y-85802632D01*
X143256710Y-85802632D02*
X143470996Y-85802632D01*
X143470996Y-85802632D02*
X143613853Y-85874060D01*
X143613853Y-85874060D02*
X143685282Y-85945489D01*
X143685282Y-85945489D02*
X143756710Y-86088346D01*
X143756710Y-86088346D02*
X143756710Y-86659775D01*
X144470996Y-85159775D02*
X142970996Y-85159775D01*
X143685282Y-85159775D02*
X143685282Y-84302632D01*
X144470996Y-84302632D02*
X142970996Y-84302632D01*
X144470996Y-83374060D02*
X144399568Y-83516917D01*
X144399568Y-83516917D02*
X144328139Y-83588346D01*
X144328139Y-83588346D02*
X144185282Y-83659774D01*
X144185282Y-83659774D02*
X143756710Y-83659774D01*
X143756710Y-83659774D02*
X143613853Y-83588346D01*
X143613853Y-83588346D02*
X143542425Y-83516917D01*
X143542425Y-83516917D02*
X143470996Y-83374060D01*
X143470996Y-83374060D02*
X143470996Y-83159774D01*
X143470996Y-83159774D02*
X143542425Y-83016917D01*
X143542425Y-83016917D02*
X143613853Y-82945489D01*
X143613853Y-82945489D02*
X143756710Y-82874060D01*
X143756710Y-82874060D02*
X144185282Y-82874060D01*
X144185282Y-82874060D02*
X144328139Y-82945489D01*
X144328139Y-82945489D02*
X144399568Y-83016917D01*
X144399568Y-83016917D02*
X144470996Y-83159774D01*
X144470996Y-83159774D02*
X144470996Y-83374060D01*
X144470996Y-82231203D02*
X143470996Y-82231203D01*
X143613853Y-82231203D02*
X143542425Y-82159774D01*
X143542425Y-82159774D02*
X143470996Y-82016917D01*
X143470996Y-82016917D02*
X143470996Y-81802631D01*
X143470996Y-81802631D02*
X143542425Y-81659774D01*
X143542425Y-81659774D02*
X143685282Y-81588346D01*
X143685282Y-81588346D02*
X144470996Y-81588346D01*
X143685282Y-81588346D02*
X143542425Y-81516917D01*
X143542425Y-81516917D02*
X143470996Y-81374060D01*
X143470996Y-81374060D02*
X143470996Y-81159774D01*
X143470996Y-81159774D02*
X143542425Y-81016917D01*
X143542425Y-81016917D02*
X143685282Y-80945488D01*
X143685282Y-80945488D02*
X144470996Y-80945488D01*
X144399568Y-79659774D02*
X144470996Y-79802631D01*
X144470996Y-79802631D02*
X144470996Y-80088346D01*
X144470996Y-80088346D02*
X144399568Y-80231203D01*
X144399568Y-80231203D02*
X144256710Y-80302631D01*
X144256710Y-80302631D02*
X143685282Y-80302631D01*
X143685282Y-80302631D02*
X143542425Y-80231203D01*
X143542425Y-80231203D02*
X143470996Y-80088346D01*
X143470996Y-80088346D02*
X143470996Y-79802631D01*
X143470996Y-79802631D02*
X143542425Y-79659774D01*
X143542425Y-79659774D02*
X143685282Y-79588346D01*
X143685282Y-79588346D02*
X143828139Y-79588346D01*
X143828139Y-79588346D02*
X143970996Y-80302631D01*
X144470996Y-77802632D02*
X142970996Y-77802632D01*
X142970996Y-77802632D02*
X144042425Y-77302632D01*
X144042425Y-77302632D02*
X142970996Y-76802632D01*
X142970996Y-76802632D02*
X144470996Y-76802632D01*
X144470996Y-75874060D02*
X144399568Y-76016917D01*
X144399568Y-76016917D02*
X144328139Y-76088346D01*
X144328139Y-76088346D02*
X144185282Y-76159774D01*
X144185282Y-76159774D02*
X143756710Y-76159774D01*
X143756710Y-76159774D02*
X143613853Y-76088346D01*
X143613853Y-76088346D02*
X143542425Y-76016917D01*
X143542425Y-76016917D02*
X143470996Y-75874060D01*
X143470996Y-75874060D02*
X143470996Y-75659774D01*
X143470996Y-75659774D02*
X143542425Y-75516917D01*
X143542425Y-75516917D02*
X143613853Y-75445489D01*
X143613853Y-75445489D02*
X143756710Y-75374060D01*
X143756710Y-75374060D02*
X144185282Y-75374060D01*
X144185282Y-75374060D02*
X144328139Y-75445489D01*
X144328139Y-75445489D02*
X144399568Y-75516917D01*
X144399568Y-75516917D02*
X144470996Y-75659774D01*
X144470996Y-75659774D02*
X144470996Y-75874060D01*
X143470996Y-74945488D02*
X143470996Y-74374060D01*
X142970996Y-74731203D02*
X144256710Y-74731203D01*
X144256710Y-74731203D02*
X144399568Y-74659774D01*
X144399568Y-74659774D02*
X144470996Y-74516917D01*
X144470996Y-74516917D02*
X144470996Y-74374060D01*
X144470996Y-73874060D02*
X143470996Y-73874060D01*
X142970996Y-73874060D02*
X143042425Y-73945488D01*
X143042425Y-73945488D02*
X143113853Y-73874060D01*
X143113853Y-73874060D02*
X143042425Y-73802631D01*
X143042425Y-73802631D02*
X142970996Y-73874060D01*
X142970996Y-73874060D02*
X143113853Y-73874060D01*
X144470996Y-72945488D02*
X144399568Y-73088345D01*
X144399568Y-73088345D02*
X144328139Y-73159774D01*
X144328139Y-73159774D02*
X144185282Y-73231202D01*
X144185282Y-73231202D02*
X143756710Y-73231202D01*
X143756710Y-73231202D02*
X143613853Y-73159774D01*
X143613853Y-73159774D02*
X143542425Y-73088345D01*
X143542425Y-73088345D02*
X143470996Y-72945488D01*
X143470996Y-72945488D02*
X143470996Y-72731202D01*
X143470996Y-72731202D02*
X143542425Y-72588345D01*
X143542425Y-72588345D02*
X143613853Y-72516917D01*
X143613853Y-72516917D02*
X143756710Y-72445488D01*
X143756710Y-72445488D02*
X144185282Y-72445488D01*
X144185282Y-72445488D02*
X144328139Y-72516917D01*
X144328139Y-72516917D02*
X144399568Y-72588345D01*
X144399568Y-72588345D02*
X144470996Y-72731202D01*
X144470996Y-72731202D02*
X144470996Y-72945488D01*
X143470996Y-71802631D02*
X144470996Y-71802631D01*
X143613853Y-71802631D02*
X143542425Y-71731202D01*
X143542425Y-71731202D02*
X143470996Y-71588345D01*
X143470996Y-71588345D02*
X143470996Y-71374059D01*
X143470996Y-71374059D02*
X143542425Y-71231202D01*
X143542425Y-71231202D02*
X143685282Y-71159774D01*
X143685282Y-71159774D02*
X144470996Y-71159774D01*
X144470996Y-70445488D02*
X142970996Y-70445488D01*
X142970996Y-70445488D02*
X142970996Y-70088345D01*
X142970996Y-70088345D02*
X143042425Y-69874059D01*
X143042425Y-69874059D02*
X143185282Y-69731202D01*
X143185282Y-69731202D02*
X143328139Y-69659773D01*
X143328139Y-69659773D02*
X143613853Y-69588345D01*
X143613853Y-69588345D02*
X143828139Y-69588345D01*
X143828139Y-69588345D02*
X144113853Y-69659773D01*
X144113853Y-69659773D02*
X144256710Y-69731202D01*
X144256710Y-69731202D02*
X144399568Y-69874059D01*
X144399568Y-69874059D02*
X144470996Y-70088345D01*
X144470996Y-70088345D02*
X144470996Y-70445488D01*
X144399568Y-68374059D02*
X144470996Y-68516916D01*
X144470996Y-68516916D02*
X144470996Y-68802631D01*
X144470996Y-68802631D02*
X144399568Y-68945488D01*
X144399568Y-68945488D02*
X144256710Y-69016916D01*
X144256710Y-69016916D02*
X143685282Y-69016916D01*
X143685282Y-69016916D02*
X143542425Y-68945488D01*
X143542425Y-68945488D02*
X143470996Y-68802631D01*
X143470996Y-68802631D02*
X143470996Y-68516916D01*
X143470996Y-68516916D02*
X143542425Y-68374059D01*
X143542425Y-68374059D02*
X143685282Y-68302631D01*
X143685282Y-68302631D02*
X143828139Y-68302631D01*
X143828139Y-68302631D02*
X143970996Y-69016916D01*
X143470996Y-67874059D02*
X143470996Y-67302631D01*
X142970996Y-67659774D02*
X144256710Y-67659774D01*
X144256710Y-67659774D02*
X144399568Y-67588345D01*
X144399568Y-67588345D02*
X144470996Y-67445488D01*
X144470996Y-67445488D02*
X144470996Y-67302631D01*
X144399568Y-66231202D02*
X144470996Y-66374059D01*
X144470996Y-66374059D02*
X144470996Y-66659774D01*
X144470996Y-66659774D02*
X144399568Y-66802631D01*
X144399568Y-66802631D02*
X144256710Y-66874059D01*
X144256710Y-66874059D02*
X143685282Y-66874059D01*
X143685282Y-66874059D02*
X143542425Y-66802631D01*
X143542425Y-66802631D02*
X143470996Y-66659774D01*
X143470996Y-66659774D02*
X143470996Y-66374059D01*
X143470996Y-66374059D02*
X143542425Y-66231202D01*
X143542425Y-66231202D02*
X143685282Y-66159774D01*
X143685282Y-66159774D02*
X143828139Y-66159774D01*
X143828139Y-66159774D02*
X143970996Y-66874059D01*
X144399568Y-64874060D02*
X144470996Y-65016917D01*
X144470996Y-65016917D02*
X144470996Y-65302631D01*
X144470996Y-65302631D02*
X144399568Y-65445488D01*
X144399568Y-65445488D02*
X144328139Y-65516917D01*
X144328139Y-65516917D02*
X144185282Y-65588345D01*
X144185282Y-65588345D02*
X143756710Y-65588345D01*
X143756710Y-65588345D02*
X143613853Y-65516917D01*
X143613853Y-65516917D02*
X143542425Y-65445488D01*
X143542425Y-65445488D02*
X143470996Y-65302631D01*
X143470996Y-65302631D02*
X143470996Y-65016917D01*
X143470996Y-65016917D02*
X143542425Y-64874060D01*
X143470996Y-64445488D02*
X143470996Y-63874060D01*
X142970996Y-64231203D02*
X144256710Y-64231203D01*
X144256710Y-64231203D02*
X144399568Y-64159774D01*
X144399568Y-64159774D02*
X144470996Y-64016917D01*
X144470996Y-64016917D02*
X144470996Y-63874060D01*
X144470996Y-63159774D02*
X144399568Y-63302631D01*
X144399568Y-63302631D02*
X144328139Y-63374060D01*
X144328139Y-63374060D02*
X144185282Y-63445488D01*
X144185282Y-63445488D02*
X143756710Y-63445488D01*
X143756710Y-63445488D02*
X143613853Y-63374060D01*
X143613853Y-63374060D02*
X143542425Y-63302631D01*
X143542425Y-63302631D02*
X143470996Y-63159774D01*
X143470996Y-63159774D02*
X143470996Y-62945488D01*
X143470996Y-62945488D02*
X143542425Y-62802631D01*
X143542425Y-62802631D02*
X143613853Y-62731203D01*
X143613853Y-62731203D02*
X143756710Y-62659774D01*
X143756710Y-62659774D02*
X144185282Y-62659774D01*
X144185282Y-62659774D02*
X144328139Y-62731203D01*
X144328139Y-62731203D02*
X144399568Y-62802631D01*
X144399568Y-62802631D02*
X144470996Y-62945488D01*
X144470996Y-62945488D02*
X144470996Y-63159774D01*
X144470996Y-62016917D02*
X143470996Y-62016917D01*
X143756710Y-62016917D02*
X143613853Y-61945488D01*
X143613853Y-61945488D02*
X143542425Y-61874060D01*
X143542425Y-61874060D02*
X143470996Y-61731202D01*
X143470996Y-61731202D02*
X143470996Y-61588345D01*
X146885912Y-88588346D02*
X146171626Y-89088346D01*
X146885912Y-89445489D02*
X145385912Y-89445489D01*
X145385912Y-89445489D02*
X145385912Y-88874060D01*
X145385912Y-88874060D02*
X145457341Y-88731203D01*
X145457341Y-88731203D02*
X145528769Y-88659774D01*
X145528769Y-88659774D02*
X145671626Y-88588346D01*
X145671626Y-88588346D02*
X145885912Y-88588346D01*
X145885912Y-88588346D02*
X146028769Y-88659774D01*
X146028769Y-88659774D02*
X146100198Y-88731203D01*
X146100198Y-88731203D02*
X146171626Y-88874060D01*
X146171626Y-88874060D02*
X146171626Y-89445489D01*
X146814484Y-87374060D02*
X146885912Y-87516917D01*
X146885912Y-87516917D02*
X146885912Y-87802632D01*
X146885912Y-87802632D02*
X146814484Y-87945489D01*
X146814484Y-87945489D02*
X146671626Y-88016917D01*
X146671626Y-88016917D02*
X146100198Y-88016917D01*
X146100198Y-88016917D02*
X145957341Y-87945489D01*
X145957341Y-87945489D02*
X145885912Y-87802632D01*
X145885912Y-87802632D02*
X145885912Y-87516917D01*
X145885912Y-87516917D02*
X145957341Y-87374060D01*
X145957341Y-87374060D02*
X146100198Y-87302632D01*
X146100198Y-87302632D02*
X146243055Y-87302632D01*
X146243055Y-87302632D02*
X146385912Y-88016917D01*
X145885912Y-86802632D02*
X146885912Y-86445489D01*
X146885912Y-86445489D02*
X145885912Y-86088346D01*
X146457341Y-84445489D02*
X146457341Y-83731204D01*
X146885912Y-84588346D02*
X145385912Y-84088346D01*
X145385912Y-84088346D02*
X146885912Y-83588346D01*
X149300828Y-89445489D02*
X147800828Y-89445489D01*
X147800828Y-89445489D02*
X148872257Y-88945489D01*
X148872257Y-88945489D02*
X147800828Y-88445489D01*
X147800828Y-88445489D02*
X149300828Y-88445489D01*
X149300828Y-87088346D02*
X148515114Y-87088346D01*
X148515114Y-87088346D02*
X148372257Y-87159774D01*
X148372257Y-87159774D02*
X148300828Y-87302631D01*
X148300828Y-87302631D02*
X148300828Y-87588346D01*
X148300828Y-87588346D02*
X148372257Y-87731203D01*
X149229400Y-87088346D02*
X149300828Y-87231203D01*
X149300828Y-87231203D02*
X149300828Y-87588346D01*
X149300828Y-87588346D02*
X149229400Y-87731203D01*
X149229400Y-87731203D02*
X149086542Y-87802631D01*
X149086542Y-87802631D02*
X148943685Y-87802631D01*
X148943685Y-87802631D02*
X148800828Y-87731203D01*
X148800828Y-87731203D02*
X148729400Y-87588346D01*
X148729400Y-87588346D02*
X148729400Y-87231203D01*
X148729400Y-87231203D02*
X148657971Y-87088346D01*
X148300828Y-86588345D02*
X148300828Y-86016917D01*
X147800828Y-86374060D02*
X149086542Y-86374060D01*
X149086542Y-86374060D02*
X149229400Y-86302631D01*
X149229400Y-86302631D02*
X149300828Y-86159774D01*
X149300828Y-86159774D02*
X149300828Y-86016917D01*
X148300828Y-85731202D02*
X148300828Y-85159774D01*
X147800828Y-85516917D02*
X149086542Y-85516917D01*
X149086542Y-85516917D02*
X149229400Y-85445488D01*
X149229400Y-85445488D02*
X149300828Y-85302631D01*
X149300828Y-85302631D02*
X149300828Y-85159774D01*
X149300828Y-83516917D02*
X147800828Y-83516917D01*
X148515114Y-83516917D02*
X148515114Y-82659774D01*
X149300828Y-82659774D02*
X147800828Y-82659774D01*
X149300828Y-81302631D02*
X148515114Y-81302631D01*
X148515114Y-81302631D02*
X148372257Y-81374059D01*
X148372257Y-81374059D02*
X148300828Y-81516916D01*
X148300828Y-81516916D02*
X148300828Y-81802631D01*
X148300828Y-81802631D02*
X148372257Y-81945488D01*
X149229400Y-81302631D02*
X149300828Y-81445488D01*
X149300828Y-81445488D02*
X149300828Y-81802631D01*
X149300828Y-81802631D02*
X149229400Y-81945488D01*
X149229400Y-81945488D02*
X149086542Y-82016916D01*
X149086542Y-82016916D02*
X148943685Y-82016916D01*
X148943685Y-82016916D02*
X148800828Y-81945488D01*
X148800828Y-81945488D02*
X148729400Y-81802631D01*
X148729400Y-81802631D02*
X148729400Y-81445488D01*
X148729400Y-81445488D02*
X148657971Y-81302631D01*
X149300828Y-80588345D02*
X148300828Y-80588345D01*
X148586542Y-80588345D02*
X148443685Y-80516916D01*
X148443685Y-80516916D02*
X148372257Y-80445488D01*
X148372257Y-80445488D02*
X148300828Y-80302630D01*
X148300828Y-80302630D02*
X148300828Y-80159773D01*
X148300828Y-79874059D02*
X148300828Y-79302631D01*
X147800828Y-79659774D02*
X149086542Y-79659774D01*
X149086542Y-79659774D02*
X149229400Y-79588345D01*
X149229400Y-79588345D02*
X149300828Y-79445488D01*
X149300828Y-79445488D02*
X149300828Y-79302631D01*
X148300828Y-78802631D02*
X149300828Y-78802631D01*
X148443685Y-78802631D02*
X148372257Y-78731202D01*
X148372257Y-78731202D02*
X148300828Y-78588345D01*
X148300828Y-78588345D02*
X148300828Y-78374059D01*
X148300828Y-78374059D02*
X148372257Y-78231202D01*
X148372257Y-78231202D02*
X148515114Y-78159774D01*
X148515114Y-78159774D02*
X149300828Y-78159774D01*
X149229400Y-76874059D02*
X149300828Y-77016916D01*
X149300828Y-77016916D02*
X149300828Y-77302631D01*
X149300828Y-77302631D02*
X149229400Y-77445488D01*
X149229400Y-77445488D02*
X149086542Y-77516916D01*
X149086542Y-77516916D02*
X148515114Y-77516916D01*
X148515114Y-77516916D02*
X148372257Y-77445488D01*
X148372257Y-77445488D02*
X148300828Y-77302631D01*
X148300828Y-77302631D02*
X148300828Y-77016916D01*
X148300828Y-77016916D02*
X148372257Y-76874059D01*
X148372257Y-76874059D02*
X148515114Y-76802631D01*
X148515114Y-76802631D02*
X148657971Y-76802631D01*
X148657971Y-76802631D02*
X148800828Y-77516916D01*
X148300828Y-76374059D02*
X148300828Y-75802631D01*
X147800828Y-76159774D02*
X149086542Y-76159774D01*
X149086542Y-76159774D02*
X149229400Y-76088345D01*
X149229400Y-76088345D02*
X149300828Y-75945488D01*
X149300828Y-75945488D02*
X149300828Y-75802631D01*
X148300828Y-75516916D02*
X148300828Y-74945488D01*
X147800828Y-75302631D02*
X149086542Y-75302631D01*
X149086542Y-75302631D02*
X149229400Y-75231202D01*
X149229400Y-75231202D02*
X149300828Y-75088345D01*
X149300828Y-75088345D02*
X149300828Y-74945488D01*
X106554510Y-100300828D02*
X106554510Y-101515114D01*
X106554510Y-101515114D02*
X106625939Y-101657971D01*
X106625939Y-101657971D02*
X106697368Y-101729400D01*
X106697368Y-101729400D02*
X106840225Y-101800828D01*
X106840225Y-101800828D02*
X107125939Y-101800828D01*
X107125939Y-101800828D02*
X107268796Y-101729400D01*
X107268796Y-101729400D02*
X107340225Y-101657971D01*
X107340225Y-101657971D02*
X107411653Y-101515114D01*
X107411653Y-101515114D02*
X107411653Y-100300828D01*
X108054511Y-101729400D02*
X108268797Y-101800828D01*
X108268797Y-101800828D02*
X108625939Y-101800828D01*
X108625939Y-101800828D02*
X108768797Y-101729400D01*
X108768797Y-101729400D02*
X108840225Y-101657971D01*
X108840225Y-101657971D02*
X108911654Y-101515114D01*
X108911654Y-101515114D02*
X108911654Y-101372257D01*
X108911654Y-101372257D02*
X108840225Y-101229400D01*
X108840225Y-101229400D02*
X108768797Y-101157971D01*
X108768797Y-101157971D02*
X108625939Y-101086542D01*
X108625939Y-101086542D02*
X108340225Y-101015114D01*
X108340225Y-101015114D02*
X108197368Y-100943685D01*
X108197368Y-100943685D02*
X108125939Y-100872257D01*
X108125939Y-100872257D02*
X108054511Y-100729400D01*
X108054511Y-100729400D02*
X108054511Y-100586542D01*
X108054511Y-100586542D02*
X108125939Y-100443685D01*
X108125939Y-100443685D02*
X108197368Y-100372257D01*
X108197368Y-100372257D02*
X108340225Y-100300828D01*
X108340225Y-100300828D02*
X108697368Y-100300828D01*
X108697368Y-100300828D02*
X108911654Y-100372257D01*
X110054510Y-101015114D02*
X110268796Y-101086542D01*
X110268796Y-101086542D02*
X110340225Y-101157971D01*
X110340225Y-101157971D02*
X110411653Y-101300828D01*
X110411653Y-101300828D02*
X110411653Y-101515114D01*
X110411653Y-101515114D02*
X110340225Y-101657971D01*
X110340225Y-101657971D02*
X110268796Y-101729400D01*
X110268796Y-101729400D02*
X110125939Y-101800828D01*
X110125939Y-101800828D02*
X109554510Y-101800828D01*
X109554510Y-101800828D02*
X109554510Y-100300828D01*
X109554510Y-100300828D02*
X110054510Y-100300828D01*
X110054510Y-100300828D02*
X110197368Y-100372257D01*
X110197368Y-100372257D02*
X110268796Y-100443685D01*
X110268796Y-100443685D02*
X110340225Y-100586542D01*
X110340225Y-100586542D02*
X110340225Y-100729400D01*
X110340225Y-100729400D02*
X110268796Y-100872257D01*
X110268796Y-100872257D02*
X110197368Y-100943685D01*
X110197368Y-100943685D02*
X110054510Y-101015114D01*
X110054510Y-101015114D02*
X109554510Y-101015114D01*
X111054510Y-101229400D02*
X112197368Y-101229400D01*
X113768796Y-101657971D02*
X113697368Y-101729400D01*
X113697368Y-101729400D02*
X113483082Y-101800828D01*
X113483082Y-101800828D02*
X113340225Y-101800828D01*
X113340225Y-101800828D02*
X113125939Y-101729400D01*
X113125939Y-101729400D02*
X112983082Y-101586542D01*
X112983082Y-101586542D02*
X112911653Y-101443685D01*
X112911653Y-101443685D02*
X112840225Y-101157971D01*
X112840225Y-101157971D02*
X112840225Y-100943685D01*
X112840225Y-100943685D02*
X112911653Y-100657971D01*
X112911653Y-100657971D02*
X112983082Y-100515114D01*
X112983082Y-100515114D02*
X113125939Y-100372257D01*
X113125939Y-100372257D02*
X113340225Y-100300828D01*
X113340225Y-100300828D02*
X113483082Y-100300828D01*
X113483082Y-100300828D02*
X113697368Y-100372257D01*
X113697368Y-100372257D02*
X113768796Y-100443685D01*
X115554510Y-101800828D02*
X115554510Y-100300828D01*
X115554510Y-100300828D02*
X116125939Y-100300828D01*
X116125939Y-100300828D02*
X116268796Y-100372257D01*
X116268796Y-100372257D02*
X116340225Y-100443685D01*
X116340225Y-100443685D02*
X116411653Y-100586542D01*
X116411653Y-100586542D02*
X116411653Y-100800828D01*
X116411653Y-100800828D02*
X116340225Y-100943685D01*
X116340225Y-100943685D02*
X116268796Y-101015114D01*
X116268796Y-101015114D02*
X116125939Y-101086542D01*
X116125939Y-101086542D02*
X115554510Y-101086542D01*
X117268796Y-101800828D02*
X117125939Y-101729400D01*
X117125939Y-101729400D02*
X117054510Y-101657971D01*
X117054510Y-101657971D02*
X116983082Y-101515114D01*
X116983082Y-101515114D02*
X116983082Y-101086542D01*
X116983082Y-101086542D02*
X117054510Y-100943685D01*
X117054510Y-100943685D02*
X117125939Y-100872257D01*
X117125939Y-100872257D02*
X117268796Y-100800828D01*
X117268796Y-100800828D02*
X117483082Y-100800828D01*
X117483082Y-100800828D02*
X117625939Y-100872257D01*
X117625939Y-100872257D02*
X117697368Y-100943685D01*
X117697368Y-100943685D02*
X117768796Y-101086542D01*
X117768796Y-101086542D02*
X117768796Y-101515114D01*
X117768796Y-101515114D02*
X117697368Y-101657971D01*
X117697368Y-101657971D02*
X117625939Y-101729400D01*
X117625939Y-101729400D02*
X117483082Y-101800828D01*
X117483082Y-101800828D02*
X117268796Y-101800828D01*
X118411653Y-101800828D02*
X118411653Y-100800828D01*
X118411653Y-101086542D02*
X118483082Y-100943685D01*
X118483082Y-100943685D02*
X118554511Y-100872257D01*
X118554511Y-100872257D02*
X118697368Y-100800828D01*
X118697368Y-100800828D02*
X118840225Y-100800828D01*
X119125939Y-100800828D02*
X119697367Y-100800828D01*
X119340224Y-100300828D02*
X119340224Y-101586542D01*
X119340224Y-101586542D02*
X119411653Y-101729400D01*
X119411653Y-101729400D02*
X119554510Y-101800828D01*
X119554510Y-101800828D02*
X119697367Y-101800828D01*
D11*
X121353884Y-100372419D02*
X121353884Y-99372419D01*
X121353884Y-99372419D02*
X121925312Y-100372419D01*
X121925312Y-100372419D02*
X121925312Y-99372419D01*
X122972931Y-100277180D02*
X122925312Y-100324800D01*
X122925312Y-100324800D02*
X122782455Y-100372419D01*
X122782455Y-100372419D02*
X122687217Y-100372419D01*
X122687217Y-100372419D02*
X122544360Y-100324800D01*
X122544360Y-100324800D02*
X122449122Y-100229561D01*
X122449122Y-100229561D02*
X122401503Y-100134323D01*
X122401503Y-100134323D02*
X122353884Y-99943847D01*
X122353884Y-99943847D02*
X122353884Y-99800990D01*
X122353884Y-99800990D02*
X122401503Y-99610514D01*
X122401503Y-99610514D02*
X122449122Y-99515276D01*
X122449122Y-99515276D02*
X122544360Y-99420038D01*
X122544360Y-99420038D02*
X122687217Y-99372419D01*
X122687217Y-99372419D02*
X122782455Y-99372419D01*
X122782455Y-99372419D02*
X122925312Y-99420038D01*
X122925312Y-99420038D02*
X122972931Y-99467657D01*
X121139598Y-51122419D02*
X121139598Y-51836704D01*
X121139598Y-51836704D02*
X121091979Y-51979561D01*
X121091979Y-51979561D02*
X120996741Y-52074800D01*
X120996741Y-52074800D02*
X120853884Y-52122419D01*
X120853884Y-52122419D02*
X120758646Y-52122419D01*
X121568170Y-51217657D02*
X121615789Y-51170038D01*
X121615789Y-51170038D02*
X121711027Y-51122419D01*
X121711027Y-51122419D02*
X121949122Y-51122419D01*
X121949122Y-51122419D02*
X122044360Y-51170038D01*
X122044360Y-51170038D02*
X122091979Y-51217657D01*
X122091979Y-51217657D02*
X122139598Y-51312895D01*
X122139598Y-51312895D02*
X122139598Y-51408133D01*
X122139598Y-51408133D02*
X122091979Y-51550990D01*
X122091979Y-51550990D02*
X121520551Y-52122419D01*
X121520551Y-52122419D02*
X122139598Y-52122419D01*
X102653884Y-100372419D02*
X102653884Y-99372419D01*
X102653884Y-99372419D02*
X103225312Y-100372419D01*
X103225312Y-100372419D02*
X103225312Y-99372419D01*
X104272931Y-100277180D02*
X104225312Y-100324800D01*
X104225312Y-100324800D02*
X104082455Y-100372419D01*
X104082455Y-100372419D02*
X103987217Y-100372419D01*
X103987217Y-100372419D02*
X103844360Y-100324800D01*
X103844360Y-100324800D02*
X103749122Y-100229561D01*
X103749122Y-100229561D02*
X103701503Y-100134323D01*
X103701503Y-100134323D02*
X103653884Y-99943847D01*
X103653884Y-99943847D02*
X103653884Y-99800990D01*
X103653884Y-99800990D02*
X103701503Y-99610514D01*
X103701503Y-99610514D02*
X103749122Y-99515276D01*
X103749122Y-99515276D02*
X103844360Y-99420038D01*
X103844360Y-99420038D02*
X103987217Y-99372419D01*
X103987217Y-99372419D02*
X104082455Y-99372419D01*
X104082455Y-99372419D02*
X104225312Y-99420038D01*
X104225312Y-99420038D02*
X104272931Y-99467657D01*
X103689598Y-50872419D02*
X103689598Y-51586704D01*
X103689598Y-51586704D02*
X103641979Y-51729561D01*
X103641979Y-51729561D02*
X103546741Y-51824800D01*
X103546741Y-51824800D02*
X103403884Y-51872419D01*
X103403884Y-51872419D02*
X103308646Y-51872419D01*
X104689598Y-51872419D02*
X104118170Y-51872419D01*
X104403884Y-51872419D02*
X104403884Y-50872419D01*
X104403884Y-50872419D02*
X104308646Y-51015276D01*
X104308646Y-51015276D02*
X104213408Y-51110514D01*
X104213408Y-51110514D02*
X104118170Y-51158133D01*
D12*
X125804318Y-76963332D02*
X126711461Y-76963332D01*
X126711461Y-76963332D02*
X126892889Y-77023809D01*
X126892889Y-77023809D02*
X127013842Y-77144761D01*
X127013842Y-77144761D02*
X127074318Y-77326190D01*
X127074318Y-77326190D02*
X127074318Y-77447142D01*
X125804318Y-76479523D02*
X125804318Y-75693332D01*
X125804318Y-75693332D02*
X126288127Y-76116666D01*
X126288127Y-76116666D02*
X126288127Y-75935237D01*
X126288127Y-75935237D02*
X126348603Y-75814285D01*
X126348603Y-75814285D02*
X126409080Y-75753809D01*
X126409080Y-75753809D02*
X126530032Y-75693332D01*
X126530032Y-75693332D02*
X126832413Y-75693332D01*
X126832413Y-75693332D02*
X126953365Y-75753809D01*
X126953365Y-75753809D02*
X127013842Y-75814285D01*
X127013842Y-75814285D02*
X127074318Y-75935237D01*
X127074318Y-75935237D02*
X127074318Y-76298094D01*
X127074318Y-76298094D02*
X127013842Y-76419047D01*
X127013842Y-76419047D02*
X126953365Y-76479523D01*
D13*
%TO.C,J2*%
X122650000Y-49590000D02*
G75*
G02*
X122450000Y-49590000I-100000J0D01*
G01*
X122450000Y-49590000D02*
G75*
G02*
X122650000Y-49590000I100000J0D01*
G01*
%TO.C,J1*%
X99950000Y-49590000D02*
G75*
G02*
X99750000Y-49590000I-100000J0D01*
G01*
X99750000Y-49590000D02*
G75*
G02*
X99950000Y-49590000I100000J0D01*
G01*
%TD*%
M02*
