%TF.GenerationSoftware,KiCad,Pcbnew,8.0.7-8.0.7-0~ubuntu22.04.1*%
%TF.CreationDate,2024-12-29T16:10:50-07:00*%
%TF.ProjectId,MotionDetector,4d6f7469-6f6e-4446-9574-6563746f722e,A*%
%TF.SameCoordinates,Original*%
%TF.FileFunction,Copper,L2,Bot*%
%TF.FilePolarity,Positive*%
%FSLAX46Y46*%
G04 Gerber Fmt 4.6, Leading zero omitted, Abs format (unit mm)*
G04 Created by KiCad (PCBNEW 8.0.7-8.0.7-0~ubuntu22.04.1) date 2024-12-29 16:10:50*
%MOMM*%
%LPD*%
G01*
G04 APERTURE LIST*
%TA.AperFunction,ComponentPad*%
%ADD10C,7.600000*%
%TD*%
%TA.AperFunction,ComponentPad*%
%ADD11C,1.530000*%
%TD*%
%TA.AperFunction,ComponentPad*%
%ADD12R,1.500000X1.500000*%
%TD*%
%TA.AperFunction,ComponentPad*%
%ADD13C,1.500000*%
%TD*%
G04 APERTURE END LIST*
D10*
%TO.P,REF\u002A\u002A,1*%
%TO.N,N/C*%
X145000000Y-97500000D03*
%TD*%
D11*
%TO.P,J2,1*%
%TO.N,GND*%
X124050000Y-51620000D03*
%TO.P,J2,2*%
%TO.N,P23*%
X124050000Y-54160000D03*
%TO.P,J2,3*%
%TO.N,P22*%
X124050000Y-56700000D03*
%TO.P,J2,4*%
%TO.N,TX*%
X124050000Y-59240000D03*
%TO.P,J2,5*%
%TO.N,RX*%
X124050000Y-61780000D03*
%TO.P,J2,6*%
%TO.N,P21*%
X124050000Y-64320000D03*
%TO.P,J2,7*%
%TO.N,GND*%
X124050000Y-66860000D03*
%TO.P,J2,8*%
%TO.N,P19*%
X124050000Y-69400000D03*
%TO.P,J2,9*%
%TO.N,P18*%
X124050000Y-71940000D03*
%TO.P,J2,10*%
%TO.N,P5*%
X124050000Y-74480000D03*
%TO.P,J2,11*%
%TO.N,P17*%
X124050000Y-77020000D03*
%TO.P,J2,12*%
%TO.N,P16*%
X124050000Y-79560000D03*
%TO.P,J2,13*%
%TO.N,P4*%
X124050000Y-82100000D03*
%TO.P,J2,14*%
%TO.N,P0*%
X124050000Y-84640000D03*
%TO.P,J2,15*%
%TO.N,P2*%
X124050000Y-87180000D03*
%TO.P,J2,16*%
%TO.N,P15*%
X124050000Y-89720000D03*
%TO.P,J2,17*%
%TO.N,SD1*%
X124050000Y-92260000D03*
%TO.P,J2,18*%
%TO.N,SD0*%
X124050000Y-94800000D03*
%TO.P,J2,19*%
%TO.N,CLK*%
X124050000Y-97340000D03*
%TO.P,J2,20*%
%TO.N,unconnected-(J2-Pad20)*%
X124050000Y-99880000D03*
%TD*%
D10*
%TO.P,REF\u002A\u002A,1*%
%TO.N,N/C*%
X110000000Y-55000000D03*
%TD*%
%TO.P,REF\u002A\u002A,1*%
%TO.N,N/C*%
X145000000Y-55000000D03*
%TD*%
%TO.P,REF\u002A\u002A,1*%
%TO.N,N/C*%
X110000000Y-97500000D03*
%TD*%
D11*
%TO.P,J1,1*%
%TO.N,+3.3V*%
X101350000Y-51620000D03*
%TO.P,J1,2*%
%TO.N,EN*%
X101350000Y-54160000D03*
%TO.P,J1,3*%
%TO.N,SVP*%
X101350000Y-56700000D03*
%TO.P,J1,4*%
%TO.N,SVN*%
X101350000Y-59240000D03*
%TO.P,J1,5*%
%TO.N,P34*%
X101350000Y-61780000D03*
%TO.P,J1,6*%
%TO.N,P35*%
X101350000Y-64320000D03*
%TO.P,J1,7*%
%TO.N,P32*%
X101350000Y-66860000D03*
%TO.P,J1,8*%
%TO.N,P33*%
X101350000Y-69400000D03*
%TO.P,J1,9*%
%TO.N,P25*%
X101350000Y-71940000D03*
%TO.P,J1,10*%
%TO.N,P26*%
X101350000Y-74480000D03*
%TO.P,J1,11*%
%TO.N,P27*%
X101350000Y-77020000D03*
%TO.P,J1,12*%
%TO.N,P14*%
X101350000Y-79560000D03*
%TO.P,J1,13*%
%TO.N,P12*%
X101350000Y-82100000D03*
%TO.P,J1,14*%
%TO.N,GND*%
X101350000Y-84640000D03*
%TO.P,J1,15*%
%TO.N,P13*%
X101350000Y-87180000D03*
%TO.P,J1,16*%
%TO.N,SD2*%
X101350000Y-89720000D03*
%TO.P,J1,17*%
%TO.N,SD3*%
X101350000Y-92260000D03*
%TO.P,J1,18*%
%TO.N,CMD*%
X101350000Y-94800000D03*
%TO.P,J1,19*%
%TO.N,+5V*%
X101350000Y-97340000D03*
%TO.P,J1,20*%
%TO.N,unconnected-(J1-Pad20)*%
X101350000Y-99880000D03*
%TD*%
D12*
%TO.P,J3,1,1*%
%TO.N,+5V*%
X129000000Y-79040000D03*
D13*
%TO.P,J3,2,2*%
%TO.N,P16*%
X129000000Y-76500000D03*
%TO.P,J3,3,3*%
%TO.N,GND*%
X129000000Y-73960000D03*
%TD*%
%TA.AperFunction,Conductor*%
%TO.N,GND*%
G36*
X109390313Y-50520185D02*
G01*
X109436068Y-50572989D01*
X109446012Y-50642147D01*
X109416987Y-50705703D01*
X109358209Y-50743477D01*
X109346741Y-50746259D01*
X108984979Y-50815982D01*
X108984960Y-50815987D01*
X108591859Y-50931411D01*
X108591847Y-50931415D01*
X108211483Y-51083690D01*
X107847315Y-51271432D01*
X107502634Y-51492943D01*
X107180590Y-51746202D01*
X107180568Y-51746222D01*
X106884941Y-52028102D01*
X106884052Y-52028950D01*
X106861930Y-52054480D01*
X106615746Y-52338591D01*
X106615735Y-52338604D01*
X106378095Y-52672322D01*
X106378089Y-52672330D01*
X106173230Y-53027157D01*
X106003030Y-53399843D01*
X106003020Y-53399868D01*
X105869024Y-53787023D01*
X105869021Y-53787033D01*
X105772427Y-54185200D01*
X105714118Y-54590743D01*
X105694623Y-55000000D01*
X105714118Y-55409256D01*
X105772427Y-55814799D01*
X105869021Y-56212966D01*
X105869024Y-56212976D01*
X106003020Y-56600131D01*
X106003030Y-56600156D01*
X106173230Y-56972842D01*
X106378089Y-57327669D01*
X106378095Y-57327677D01*
X106615735Y-57661395D01*
X106615744Y-57661405D01*
X106615745Y-57661407D01*
X106884052Y-57971050D01*
X107180578Y-58253787D01*
X107180585Y-58253792D01*
X107180590Y-58253797D01*
X107502634Y-58507056D01*
X107502636Y-58507057D01*
X107847312Y-58728566D01*
X108211482Y-58916309D01*
X108591849Y-59068585D01*
X108984969Y-59184015D01*
X108984977Y-59184016D01*
X108984979Y-59184017D01*
X109275447Y-59240000D01*
X109387281Y-59261554D01*
X109795142Y-59300500D01*
X109795148Y-59300500D01*
X110204852Y-59300500D01*
X110204858Y-59300500D01*
X110612719Y-59261554D01*
X111015031Y-59184015D01*
X111408151Y-59068585D01*
X111788518Y-58916309D01*
X112152689Y-58728566D01*
X112497364Y-58507057D01*
X112819422Y-58253787D01*
X113115948Y-57971050D01*
X113384255Y-57661407D01*
X113621914Y-57327663D01*
X113826772Y-56972838D01*
X113996974Y-56600147D01*
X114130979Y-56212965D01*
X114227573Y-55814798D01*
X114285882Y-55409252D01*
X114305377Y-55000000D01*
X114285882Y-54590748D01*
X114227573Y-54185202D01*
X114130979Y-53787035D01*
X114109688Y-53725520D01*
X113996979Y-53399868D01*
X113996974Y-53399853D01*
X113826772Y-53027162D01*
X113621914Y-52672337D01*
X113621910Y-52672330D01*
X113621904Y-52672322D01*
X113384264Y-52338604D01*
X113384253Y-52338591D01*
X113115948Y-52028950D01*
X112819422Y-51746213D01*
X112819415Y-51746207D01*
X112819409Y-51746202D01*
X112497365Y-51492943D01*
X112314795Y-51375613D01*
X112152689Y-51271434D01*
X111788518Y-51083691D01*
X111788512Y-51083688D01*
X111788509Y-51083687D01*
X111408152Y-50931415D01*
X111408140Y-50931411D01*
X111015039Y-50815987D01*
X111015020Y-50815982D01*
X110653259Y-50746259D01*
X110591156Y-50714243D01*
X110556221Y-50653734D01*
X110559546Y-50583944D01*
X110600074Y-50527029D01*
X110664939Y-50501061D01*
X110676726Y-50500500D01*
X123232691Y-50500500D01*
X123299730Y-50520185D01*
X123320372Y-50536819D01*
X123912425Y-51128871D01*
X123853147Y-51144755D01*
X123736853Y-51211898D01*
X123641898Y-51306853D01*
X123574755Y-51423147D01*
X123558871Y-51482424D01*
X122996104Y-50919657D01*
X122996103Y-50919658D01*
X122950295Y-50985080D01*
X122856749Y-51185690D01*
X122856745Y-51185699D01*
X122799461Y-51399490D01*
X122799459Y-51399500D01*
X122780168Y-51619999D01*
X122780168Y-51620000D01*
X122799459Y-51840499D01*
X122799461Y-51840509D01*
X122856745Y-52054300D01*
X122856749Y-52054309D01*
X122950293Y-52254916D01*
X122950295Y-52254920D01*
X122996103Y-52320341D01*
X122996104Y-52320341D01*
X123558871Y-51757574D01*
X123574755Y-51816853D01*
X123641898Y-51933147D01*
X123736853Y-52028102D01*
X123853147Y-52095245D01*
X123912425Y-52111128D01*
X123349657Y-52673894D01*
X123415084Y-52719707D01*
X123538683Y-52777342D01*
X123591122Y-52823514D01*
X123610274Y-52890708D01*
X123590058Y-52957589D01*
X123538683Y-53002106D01*
X123414833Y-53059857D01*
X123233444Y-53186868D01*
X123076868Y-53343444D01*
X122949857Y-53524834D01*
X122949856Y-53524836D01*
X122856279Y-53725513D01*
X122856275Y-53725524D01*
X122798965Y-53939407D01*
X122798964Y-53939414D01*
X122779666Y-54159998D01*
X122779666Y-54160001D01*
X122798964Y-54380585D01*
X122798965Y-54380592D01*
X122856275Y-54594475D01*
X122856279Y-54594486D01*
X122949856Y-54795163D01*
X122949858Y-54795167D01*
X123076868Y-54976555D01*
X123233445Y-55133132D01*
X123414833Y-55260142D01*
X123476828Y-55289050D01*
X123538091Y-55317618D01*
X123590531Y-55363790D01*
X123609683Y-55430983D01*
X123589467Y-55497865D01*
X123538091Y-55542382D01*
X123414836Y-55599856D01*
X123414834Y-55599857D01*
X123233444Y-55726868D01*
X123076868Y-55883444D01*
X122949857Y-56064834D01*
X122949856Y-56064836D01*
X122856279Y-56265513D01*
X122856275Y-56265524D01*
X122798965Y-56479407D01*
X122798964Y-56479414D01*
X122779666Y-56699998D01*
X122779666Y-56700001D01*
X122798964Y-56920585D01*
X122798965Y-56920592D01*
X122856275Y-57134475D01*
X122856279Y-57134486D01*
X122946365Y-57327677D01*
X122949858Y-57335167D01*
X123076868Y-57516555D01*
X123233445Y-57673132D01*
X123414833Y-57800142D01*
X123476828Y-57829050D01*
X123538091Y-57857618D01*
X123590531Y-57903790D01*
X123609683Y-57970983D01*
X123589467Y-58037865D01*
X123538091Y-58082382D01*
X123414836Y-58139856D01*
X123414834Y-58139857D01*
X123233444Y-58266868D01*
X123076868Y-58423444D01*
X122949857Y-58604834D01*
X122949856Y-58604836D01*
X122856279Y-58805513D01*
X122856275Y-58805524D01*
X122798965Y-59019407D01*
X122798964Y-59019414D01*
X122779666Y-59239998D01*
X122779666Y-59240001D01*
X122798964Y-59460585D01*
X122798965Y-59460592D01*
X122856275Y-59674475D01*
X122856279Y-59674486D01*
X122949856Y-59875163D01*
X122949858Y-59875167D01*
X123076868Y-60056555D01*
X123233445Y-60213132D01*
X123414833Y-60340142D01*
X123476828Y-60369050D01*
X123538091Y-60397618D01*
X123590531Y-60443790D01*
X123609683Y-60510983D01*
X123589467Y-60577865D01*
X123538091Y-60622382D01*
X123414836Y-60679856D01*
X123414834Y-60679857D01*
X123233444Y-60806868D01*
X123076868Y-60963444D01*
X122949857Y-61144834D01*
X122949856Y-61144836D01*
X122856279Y-61345513D01*
X122856275Y-61345524D01*
X122798965Y-61559407D01*
X122798964Y-61559414D01*
X122779666Y-61779998D01*
X122779666Y-61780001D01*
X122798964Y-62000585D01*
X122798965Y-62000592D01*
X122856275Y-62214475D01*
X122856279Y-62214486D01*
X122949856Y-62415163D01*
X122949858Y-62415167D01*
X123076868Y-62596555D01*
X123233445Y-62753132D01*
X123414833Y-62880142D01*
X123476828Y-62909050D01*
X123538091Y-62937618D01*
X123590531Y-62983790D01*
X123609683Y-63050983D01*
X123589467Y-63117865D01*
X123538091Y-63162382D01*
X123414836Y-63219856D01*
X123414834Y-63219857D01*
X123233444Y-63346868D01*
X123076868Y-63503444D01*
X122949857Y-63684834D01*
X122949856Y-63684836D01*
X122856279Y-63885513D01*
X122856275Y-63885524D01*
X122798965Y-64099407D01*
X122798964Y-64099414D01*
X122779666Y-64319998D01*
X122779666Y-64320001D01*
X122798964Y-64540585D01*
X122798965Y-64540592D01*
X122856275Y-64754475D01*
X122856279Y-64754486D01*
X122949856Y-64955163D01*
X122949858Y-64955167D01*
X123076868Y-65136555D01*
X123233445Y-65293132D01*
X123414833Y-65420142D01*
X123538682Y-65477893D01*
X123591122Y-65524065D01*
X123610274Y-65591258D01*
X123590059Y-65658139D01*
X123538683Y-65702657D01*
X123415080Y-65760294D01*
X123349658Y-65806103D01*
X123349657Y-65806104D01*
X123912425Y-66368871D01*
X123853147Y-66384755D01*
X123736853Y-66451898D01*
X123641898Y-66546853D01*
X123574755Y-66663147D01*
X123558871Y-66722424D01*
X122996104Y-66159657D01*
X122996103Y-66159658D01*
X122950295Y-66225080D01*
X122856749Y-66425690D01*
X122856745Y-66425699D01*
X122799461Y-66639490D01*
X122799459Y-66639500D01*
X122780168Y-66859999D01*
X122780168Y-66860000D01*
X122799459Y-67080499D01*
X122799461Y-67080509D01*
X122856745Y-67294300D01*
X122856749Y-67294309D01*
X122950293Y-67494916D01*
X122950295Y-67494920D01*
X122996103Y-67560341D01*
X122996104Y-67560341D01*
X123558871Y-66997574D01*
X123574755Y-67056853D01*
X123641898Y-67173147D01*
X123736853Y-67268102D01*
X123853147Y-67335245D01*
X123912425Y-67351128D01*
X123349657Y-67913894D01*
X123415084Y-67959707D01*
X123538683Y-68017342D01*
X123591122Y-68063514D01*
X123610274Y-68130708D01*
X123590058Y-68197589D01*
X123538683Y-68242106D01*
X123414833Y-68299857D01*
X123233444Y-68426868D01*
X123076868Y-68583444D01*
X122949857Y-68764834D01*
X122949856Y-68764836D01*
X122856279Y-68965513D01*
X122856275Y-68965524D01*
X122798965Y-69179407D01*
X122798964Y-69179414D01*
X122779666Y-69399998D01*
X122779666Y-69400001D01*
X122798964Y-69620585D01*
X122798965Y-69620592D01*
X122856275Y-69834475D01*
X122856279Y-69834486D01*
X122949856Y-70035163D01*
X122949858Y-70035167D01*
X123076868Y-70216555D01*
X123233445Y-70373132D01*
X123414833Y-70500142D01*
X123476828Y-70529050D01*
X123538091Y-70557618D01*
X123590531Y-70603790D01*
X123609683Y-70670983D01*
X123589467Y-70737865D01*
X123538091Y-70782382D01*
X123414836Y-70839856D01*
X123414834Y-70839857D01*
X123233444Y-70966868D01*
X123076868Y-71123444D01*
X122949857Y-71304834D01*
X122949856Y-71304836D01*
X122856279Y-71505513D01*
X122856275Y-71505524D01*
X122798965Y-71719407D01*
X122798964Y-71719414D01*
X122779666Y-71939998D01*
X122779666Y-71940001D01*
X122798964Y-72160585D01*
X122798965Y-72160592D01*
X122856275Y-72374475D01*
X122856279Y-72374486D01*
X122949856Y-72575163D01*
X122949858Y-72575167D01*
X123076868Y-72756555D01*
X123233445Y-72913132D01*
X123414833Y-73040142D01*
X123476828Y-73069050D01*
X123538091Y-73097618D01*
X123590531Y-73143790D01*
X123609683Y-73210983D01*
X123589467Y-73277865D01*
X123538091Y-73322382D01*
X123414836Y-73379856D01*
X123414834Y-73379857D01*
X123233444Y-73506868D01*
X123076868Y-73663444D01*
X122949857Y-73844834D01*
X122949856Y-73844836D01*
X122856279Y-74045513D01*
X122856275Y-74045524D01*
X122798965Y-74259407D01*
X122798964Y-74259414D01*
X122779666Y-74479998D01*
X122779666Y-74480001D01*
X122798964Y-74700585D01*
X122798965Y-74700592D01*
X122856275Y-74914475D01*
X122856279Y-74914486D01*
X122949856Y-75115163D01*
X122949858Y-75115167D01*
X123076868Y-75296555D01*
X123233445Y-75453132D01*
X123414833Y-75580142D01*
X123476828Y-75609050D01*
X123538091Y-75637618D01*
X123590531Y-75683790D01*
X123609683Y-75750983D01*
X123589467Y-75817865D01*
X123538091Y-75862382D01*
X123414836Y-75919856D01*
X123414834Y-75919857D01*
X123233444Y-76046868D01*
X123076868Y-76203444D01*
X122949857Y-76384834D01*
X122949856Y-76384836D01*
X122856279Y-76585513D01*
X122856275Y-76585524D01*
X122798965Y-76799407D01*
X122798964Y-76799414D01*
X122779666Y-77019998D01*
X122779666Y-77020001D01*
X122798964Y-77240585D01*
X122798965Y-77240592D01*
X122856275Y-77454475D01*
X122856279Y-77454486D01*
X122916811Y-77584297D01*
X122949858Y-77655167D01*
X123076868Y-77836555D01*
X123233445Y-77993132D01*
X123414833Y-78120142D01*
X123476828Y-78149050D01*
X123538091Y-78177618D01*
X123590531Y-78223790D01*
X123609683Y-78290983D01*
X123589467Y-78357865D01*
X123538091Y-78402382D01*
X123414836Y-78459856D01*
X123414834Y-78459857D01*
X123233444Y-78586868D01*
X123076868Y-78743444D01*
X122949857Y-78924834D01*
X122949856Y-78924836D01*
X122856279Y-79125513D01*
X122856275Y-79125524D01*
X122798965Y-79339407D01*
X122798964Y-79339414D01*
X122779666Y-79559998D01*
X122779666Y-79560001D01*
X122798964Y-79780585D01*
X122798965Y-79780592D01*
X122856275Y-79994475D01*
X122856279Y-79994486D01*
X122949856Y-80195163D01*
X122949858Y-80195167D01*
X123076868Y-80376555D01*
X123233445Y-80533132D01*
X123414833Y-80660142D01*
X123476828Y-80689050D01*
X123538091Y-80717618D01*
X123590531Y-80763790D01*
X123609683Y-80830983D01*
X123589467Y-80897865D01*
X123538091Y-80942382D01*
X123414836Y-80999856D01*
X123414834Y-80999857D01*
X123233444Y-81126868D01*
X123076868Y-81283444D01*
X122949857Y-81464834D01*
X122949856Y-81464836D01*
X122856279Y-81665513D01*
X122856275Y-81665524D01*
X122798965Y-81879407D01*
X122798964Y-81879414D01*
X122779666Y-82099998D01*
X122779666Y-82100001D01*
X122798964Y-82320585D01*
X122798965Y-82320592D01*
X122856275Y-82534475D01*
X122856279Y-82534486D01*
X122949856Y-82735163D01*
X122949858Y-82735167D01*
X123076868Y-82916555D01*
X123233445Y-83073132D01*
X123414833Y-83200142D01*
X123476828Y-83229050D01*
X123538091Y-83257618D01*
X123590531Y-83303790D01*
X123609683Y-83370983D01*
X123589467Y-83437865D01*
X123538091Y-83482382D01*
X123414836Y-83539856D01*
X123414834Y-83539857D01*
X123233444Y-83666868D01*
X123076868Y-83823444D01*
X122949857Y-84004834D01*
X122949856Y-84004836D01*
X122856279Y-84205513D01*
X122856275Y-84205524D01*
X122798965Y-84419407D01*
X122798964Y-84419414D01*
X122779666Y-84639998D01*
X122779666Y-84640001D01*
X122798964Y-84860585D01*
X122798965Y-84860592D01*
X122856275Y-85074475D01*
X122856279Y-85074486D01*
X122949742Y-85274919D01*
X122949858Y-85275167D01*
X123076868Y-85456555D01*
X123233445Y-85613132D01*
X123414833Y-85740142D01*
X123476828Y-85769050D01*
X123538091Y-85797618D01*
X123590531Y-85843790D01*
X123609683Y-85910983D01*
X123589467Y-85977865D01*
X123538091Y-86022382D01*
X123414836Y-86079856D01*
X123414834Y-86079857D01*
X123233444Y-86206868D01*
X123076868Y-86363444D01*
X122949857Y-86544834D01*
X122949856Y-86544836D01*
X122856279Y-86745513D01*
X122856275Y-86745524D01*
X122798965Y-86959407D01*
X122798964Y-86959414D01*
X122779666Y-87179998D01*
X122779666Y-87180001D01*
X122798964Y-87400585D01*
X122798965Y-87400592D01*
X122856275Y-87614475D01*
X122856279Y-87614486D01*
X122949856Y-87815163D01*
X122949858Y-87815167D01*
X123076868Y-87996555D01*
X123233445Y-88153132D01*
X123414833Y-88280142D01*
X123476828Y-88309050D01*
X123538091Y-88337618D01*
X123590531Y-88383790D01*
X123609683Y-88450983D01*
X123589467Y-88517865D01*
X123538091Y-88562382D01*
X123414836Y-88619856D01*
X123414834Y-88619857D01*
X123233444Y-88746868D01*
X123076868Y-88903444D01*
X122949857Y-89084834D01*
X122949856Y-89084836D01*
X122856279Y-89285513D01*
X122856275Y-89285524D01*
X122798965Y-89499407D01*
X122798964Y-89499414D01*
X122779666Y-89719998D01*
X122779666Y-89720001D01*
X122798964Y-89940585D01*
X122798965Y-89940592D01*
X122856275Y-90154475D01*
X122856279Y-90154486D01*
X122949856Y-90355163D01*
X122949858Y-90355167D01*
X123076868Y-90536555D01*
X123233445Y-90693132D01*
X123414833Y-90820142D01*
X123476828Y-90849050D01*
X123538091Y-90877618D01*
X123590531Y-90923790D01*
X123609683Y-90990983D01*
X123589467Y-91057865D01*
X123538091Y-91102382D01*
X123414836Y-91159856D01*
X123414834Y-91159857D01*
X123233444Y-91286868D01*
X123076868Y-91443444D01*
X122949857Y-91624834D01*
X122949856Y-91624836D01*
X122856279Y-91825513D01*
X122856275Y-91825524D01*
X122798965Y-92039407D01*
X122798964Y-92039414D01*
X122779666Y-92259998D01*
X122779666Y-92260001D01*
X122798964Y-92480585D01*
X122798965Y-92480592D01*
X122856275Y-92694475D01*
X122856279Y-92694486D01*
X122949856Y-92895163D01*
X122949858Y-92895167D01*
X123076868Y-93076555D01*
X123233445Y-93233132D01*
X123414833Y-93360142D01*
X123476828Y-93389050D01*
X123538091Y-93417618D01*
X123590531Y-93463790D01*
X123609683Y-93530983D01*
X123589467Y-93597865D01*
X123538091Y-93642382D01*
X123414836Y-93699856D01*
X123414834Y-93699857D01*
X123233444Y-93826868D01*
X123076868Y-93983444D01*
X122949857Y-94164834D01*
X122949856Y-94164836D01*
X122856279Y-94365513D01*
X122856275Y-94365524D01*
X122798965Y-94579407D01*
X122798964Y-94579414D01*
X122779666Y-94799998D01*
X122779666Y-94800001D01*
X122798964Y-95020585D01*
X122798965Y-95020592D01*
X122856275Y-95234475D01*
X122856279Y-95234486D01*
X122949856Y-95435163D01*
X122949858Y-95435167D01*
X123076868Y-95616555D01*
X123233445Y-95773132D01*
X123414833Y-95900142D01*
X123476828Y-95929050D01*
X123538091Y-95957618D01*
X123590531Y-96003790D01*
X123609683Y-96070983D01*
X123589467Y-96137865D01*
X123538091Y-96182382D01*
X123414836Y-96239856D01*
X123414834Y-96239857D01*
X123233444Y-96366868D01*
X123076868Y-96523444D01*
X122949857Y-96704834D01*
X122949856Y-96704836D01*
X122856279Y-96905513D01*
X122856275Y-96905524D01*
X122798965Y-97119407D01*
X122798964Y-97119414D01*
X122779666Y-97339998D01*
X122779666Y-97340001D01*
X122798964Y-97560585D01*
X122798965Y-97560592D01*
X122856275Y-97774475D01*
X122856279Y-97774486D01*
X122919123Y-97909256D01*
X122949858Y-97975167D01*
X123076868Y-98156555D01*
X123233445Y-98313132D01*
X123414833Y-98440142D01*
X123476828Y-98469050D01*
X123538091Y-98497618D01*
X123590531Y-98543790D01*
X123609683Y-98610983D01*
X123589467Y-98677865D01*
X123538091Y-98722382D01*
X123414836Y-98779856D01*
X123414834Y-98779857D01*
X123233444Y-98906868D01*
X123076868Y-99063444D01*
X122949857Y-99244834D01*
X122949856Y-99244836D01*
X122856279Y-99445513D01*
X122856275Y-99445524D01*
X122798965Y-99659407D01*
X122798964Y-99659414D01*
X122779666Y-99879998D01*
X122779666Y-99880001D01*
X122798964Y-100100585D01*
X122798965Y-100100592D01*
X122856275Y-100314475D01*
X122856279Y-100314486D01*
X122929286Y-100471050D01*
X122949858Y-100515167D01*
X123076868Y-100696555D01*
X123233445Y-100853132D01*
X123414833Y-100980142D01*
X123472551Y-101007056D01*
X123615513Y-101073720D01*
X123615515Y-101073720D01*
X123615520Y-101073723D01*
X123829409Y-101131035D01*
X123986974Y-101144820D01*
X124049998Y-101150334D01*
X124050000Y-101150334D01*
X124050002Y-101150334D01*
X124105147Y-101145509D01*
X124270591Y-101131035D01*
X124484480Y-101073723D01*
X124685167Y-100980142D01*
X124866555Y-100853132D01*
X125023132Y-100696555D01*
X125150142Y-100515167D01*
X125243723Y-100314480D01*
X125301035Y-100100591D01*
X125320334Y-99880000D01*
X125301035Y-99659409D01*
X125243723Y-99445520D01*
X125150142Y-99244833D01*
X125023132Y-99063445D01*
X124866555Y-98906868D01*
X124685167Y-98779858D01*
X124561907Y-98722381D01*
X124509468Y-98676210D01*
X124490316Y-98609017D01*
X124510531Y-98542136D01*
X124561908Y-98497618D01*
X124685167Y-98440142D01*
X124866555Y-98313132D01*
X125023132Y-98156555D01*
X125150142Y-97975167D01*
X125243723Y-97774480D01*
X125301035Y-97560591D01*
X125306336Y-97500000D01*
X140694623Y-97500000D01*
X140714118Y-97909256D01*
X140772427Y-98314799D01*
X140869021Y-98712966D01*
X140869024Y-98712976D01*
X141003020Y-99100131D01*
X141003030Y-99100156D01*
X141173230Y-99472842D01*
X141378089Y-99827669D01*
X141378095Y-99827677D01*
X141615735Y-100161395D01*
X141615744Y-100161405D01*
X141615745Y-100161407D01*
X141884052Y-100471050D01*
X142180578Y-100753787D01*
X142180585Y-100753792D01*
X142180590Y-100753797D01*
X142502634Y-101007056D01*
X142502636Y-101007057D01*
X142847312Y-101228566D01*
X143211482Y-101416309D01*
X143591849Y-101568585D01*
X143984969Y-101684015D01*
X144387281Y-101761554D01*
X144795142Y-101800500D01*
X144795148Y-101800500D01*
X145204852Y-101800500D01*
X145204858Y-101800500D01*
X145612719Y-101761554D01*
X146015031Y-101684015D01*
X146408151Y-101568585D01*
X146788518Y-101416309D01*
X147152689Y-101228566D01*
X147497364Y-101007057D01*
X147819422Y-100753787D01*
X148115948Y-100471050D01*
X148384255Y-100161407D01*
X148427562Y-100100592D01*
X148621904Y-99827677D01*
X148621910Y-99827669D01*
X148621911Y-99827666D01*
X148621914Y-99827663D01*
X148826772Y-99472838D01*
X148996974Y-99100147D01*
X149130979Y-98712965D01*
X149227573Y-98314798D01*
X149285882Y-97909252D01*
X149305377Y-97500000D01*
X149285882Y-97090748D01*
X149227573Y-96685202D01*
X149130979Y-96287035D01*
X148996974Y-95899853D01*
X148826772Y-95527162D01*
X148621914Y-95172337D01*
X148621910Y-95172330D01*
X148621904Y-95172322D01*
X148384264Y-94838604D01*
X148384253Y-94838591D01*
X148115948Y-94528950D01*
X147819422Y-94246213D01*
X147819415Y-94246207D01*
X147819409Y-94246202D01*
X147497365Y-93992943D01*
X147314795Y-93875613D01*
X147152689Y-93771434D01*
X146788518Y-93583691D01*
X146788512Y-93583688D01*
X146788509Y-93583687D01*
X146408152Y-93431415D01*
X146408140Y-93431411D01*
X146015039Y-93315987D01*
X146015020Y-93315982D01*
X145612734Y-93238448D01*
X145612722Y-93238446D01*
X145476765Y-93225464D01*
X145204858Y-93199500D01*
X144795142Y-93199500D01*
X144550425Y-93222867D01*
X144387277Y-93238446D01*
X144387265Y-93238448D01*
X143984979Y-93315982D01*
X143984960Y-93315987D01*
X143591859Y-93431411D01*
X143591847Y-93431415D01*
X143211483Y-93583690D01*
X142847315Y-93771432D01*
X142502634Y-93992943D01*
X142180590Y-94246202D01*
X142180568Y-94246222D01*
X141884055Y-94528947D01*
X141884053Y-94528949D01*
X141615746Y-94838591D01*
X141615735Y-94838604D01*
X141378095Y-95172322D01*
X141378089Y-95172330D01*
X141173230Y-95527157D01*
X141003030Y-95899843D01*
X141003020Y-95899868D01*
X140869024Y-96287023D01*
X140869021Y-96287033D01*
X140772427Y-96685200D01*
X140714118Y-97090743D01*
X140694623Y-97500000D01*
X125306336Y-97500000D01*
X125320334Y-97340000D01*
X125301035Y-97119409D01*
X125243723Y-96905520D01*
X125150142Y-96704833D01*
X125023132Y-96523445D01*
X124866555Y-96366868D01*
X124685167Y-96239858D01*
X124561907Y-96182381D01*
X124509468Y-96136210D01*
X124490316Y-96069017D01*
X124510531Y-96002136D01*
X124561908Y-95957618D01*
X124685167Y-95900142D01*
X124866555Y-95773132D01*
X125023132Y-95616555D01*
X125150142Y-95435167D01*
X125243723Y-95234480D01*
X125301035Y-95020591D01*
X125320334Y-94800000D01*
X125301035Y-94579409D01*
X125243723Y-94365520D01*
X125150142Y-94164833D01*
X125023132Y-93983445D01*
X124866555Y-93826868D01*
X124685167Y-93699858D01*
X124561907Y-93642381D01*
X124509468Y-93596210D01*
X124490316Y-93529017D01*
X124510531Y-93462136D01*
X124561908Y-93417618D01*
X124685167Y-93360142D01*
X124866555Y-93233132D01*
X125023132Y-93076555D01*
X125150142Y-92895167D01*
X125243723Y-92694480D01*
X125301035Y-92480591D01*
X125320334Y-92260000D01*
X125301035Y-92039409D01*
X125243723Y-91825520D01*
X125150142Y-91624833D01*
X125023132Y-91443445D01*
X124866555Y-91286868D01*
X124685167Y-91159858D01*
X124561907Y-91102381D01*
X124509468Y-91056210D01*
X124490316Y-90989017D01*
X124510531Y-90922136D01*
X124561908Y-90877618D01*
X124685167Y-90820142D01*
X124866555Y-90693132D01*
X125023132Y-90536555D01*
X125150142Y-90355167D01*
X125243723Y-90154480D01*
X125301035Y-89940591D01*
X125320334Y-89720000D01*
X125301035Y-89499409D01*
X125243723Y-89285520D01*
X125150142Y-89084833D01*
X125023132Y-88903445D01*
X124866555Y-88746868D01*
X124685167Y-88619858D01*
X124561907Y-88562381D01*
X124509468Y-88516210D01*
X124490316Y-88449017D01*
X124510531Y-88382136D01*
X124561908Y-88337618D01*
X124685167Y-88280142D01*
X124866555Y-88153132D01*
X125023132Y-87996555D01*
X125150142Y-87815167D01*
X125243723Y-87614480D01*
X125301035Y-87400591D01*
X125320334Y-87180000D01*
X125301035Y-86959409D01*
X125243723Y-86745520D01*
X125150142Y-86544833D01*
X125023132Y-86363445D01*
X124866555Y-86206868D01*
X124685167Y-86079858D01*
X124561907Y-86022381D01*
X124509468Y-85976210D01*
X124490316Y-85909017D01*
X124510531Y-85842136D01*
X124561908Y-85797618D01*
X124562500Y-85797342D01*
X124685167Y-85740142D01*
X124866555Y-85613132D01*
X125023132Y-85456555D01*
X125150142Y-85275167D01*
X125243723Y-85074480D01*
X125301035Y-84860591D01*
X125320334Y-84640000D01*
X125301035Y-84419409D01*
X125243723Y-84205520D01*
X125150142Y-84004833D01*
X125023132Y-83823445D01*
X124866555Y-83666868D01*
X124685167Y-83539858D01*
X124561907Y-83482381D01*
X124509468Y-83436210D01*
X124490316Y-83369017D01*
X124510531Y-83302136D01*
X124561908Y-83257618D01*
X124685167Y-83200142D01*
X124866555Y-83073132D01*
X125023132Y-82916555D01*
X125150142Y-82735167D01*
X125243723Y-82534480D01*
X125301035Y-82320591D01*
X125320334Y-82100000D01*
X125301035Y-81879409D01*
X125243723Y-81665520D01*
X125150142Y-81464833D01*
X125023132Y-81283445D01*
X124866555Y-81126868D01*
X124685167Y-80999858D01*
X124561907Y-80942381D01*
X124509468Y-80896210D01*
X124490316Y-80829017D01*
X124510531Y-80762136D01*
X124561908Y-80717618D01*
X124685167Y-80660142D01*
X124866555Y-80533132D01*
X125023132Y-80376555D01*
X125150142Y-80195167D01*
X125243723Y-79994480D01*
X125301035Y-79780591D01*
X125320334Y-79560000D01*
X125301035Y-79339409D01*
X125243723Y-79125520D01*
X125150142Y-78924833D01*
X125023132Y-78743445D01*
X124866555Y-78586868D01*
X124685167Y-78459858D01*
X124561907Y-78402381D01*
X124509468Y-78356210D01*
X124490316Y-78289017D01*
X124510531Y-78222136D01*
X124561908Y-78177618D01*
X124685167Y-78120142D01*
X124866555Y-77993132D01*
X125023132Y-77836555D01*
X125150142Y-77655167D01*
X125243723Y-77454480D01*
X125301035Y-77240591D01*
X125320334Y-77020000D01*
X125301035Y-76799409D01*
X125243723Y-76585520D01*
X125203843Y-76499997D01*
X127744723Y-76499997D01*
X127744723Y-76500002D01*
X127763793Y-76717975D01*
X127763793Y-76717979D01*
X127820422Y-76929322D01*
X127820424Y-76929326D01*
X127820425Y-76929330D01*
X127862704Y-77019998D01*
X127912897Y-77127638D01*
X127912898Y-77127639D01*
X128038402Y-77306877D01*
X128193123Y-77461598D01*
X128339263Y-77563926D01*
X128382887Y-77618502D01*
X128390081Y-77688000D01*
X128358558Y-77750355D01*
X128298328Y-77785769D01*
X128268141Y-77789500D01*
X128202130Y-77789500D01*
X128202123Y-77789501D01*
X128142516Y-77795908D01*
X128007671Y-77846202D01*
X128007664Y-77846206D01*
X127892455Y-77932452D01*
X127892452Y-77932455D01*
X127806206Y-78047664D01*
X127806202Y-78047671D01*
X127755908Y-78182517D01*
X127749501Y-78242116D01*
X127749501Y-78242123D01*
X127749500Y-78242135D01*
X127749500Y-79837870D01*
X127749501Y-79837876D01*
X127755908Y-79897483D01*
X127806202Y-80032328D01*
X127806206Y-80032335D01*
X127892452Y-80147544D01*
X127892455Y-80147547D01*
X128007664Y-80233793D01*
X128007671Y-80233797D01*
X128142517Y-80284091D01*
X128142516Y-80284091D01*
X128149444Y-80284835D01*
X128202127Y-80290500D01*
X129797872Y-80290499D01*
X129857483Y-80284091D01*
X129992331Y-80233796D01*
X130107546Y-80147546D01*
X130193796Y-80032331D01*
X130244091Y-79897483D01*
X130250500Y-79837873D01*
X130250499Y-78242128D01*
X130244091Y-78182517D01*
X130193796Y-78047669D01*
X130193795Y-78047668D01*
X130193793Y-78047664D01*
X130107547Y-77932455D01*
X130107544Y-77932452D01*
X129992335Y-77846206D01*
X129992328Y-77846202D01*
X129857482Y-77795908D01*
X129857483Y-77795908D01*
X129797883Y-77789501D01*
X129797881Y-77789500D01*
X129797873Y-77789500D01*
X129797865Y-77789500D01*
X129731862Y-77789500D01*
X129664823Y-77769815D01*
X129619068Y-77717011D01*
X129609124Y-77647853D01*
X129638149Y-77584297D01*
X129660734Y-77563928D01*
X129806877Y-77461598D01*
X129961598Y-77306877D01*
X130087102Y-77127639D01*
X130179575Y-76929330D01*
X130236207Y-76717977D01*
X130255277Y-76500000D01*
X130236207Y-76282023D01*
X130179575Y-76070670D01*
X130087102Y-75872362D01*
X130087100Y-75872359D01*
X130087099Y-75872357D01*
X129961599Y-75693124D01*
X129906093Y-75637618D01*
X129806877Y-75538402D01*
X129627639Y-75412898D01*
X129627640Y-75412898D01*
X129627638Y-75412897D01*
X129475824Y-75342105D01*
X129423385Y-75295932D01*
X129404233Y-75228739D01*
X129424449Y-75161858D01*
X129475825Y-75117340D01*
X129627388Y-75046666D01*
X129689571Y-75003124D01*
X129129410Y-74442962D01*
X129192993Y-74425925D01*
X129307007Y-74360099D01*
X129400099Y-74267007D01*
X129465925Y-74152993D01*
X129482962Y-74089409D01*
X130043124Y-74649570D01*
X130086668Y-74587385D01*
X130086669Y-74587383D01*
X130179100Y-74389164D01*
X130179105Y-74389150D01*
X130235710Y-74177894D01*
X130235712Y-74177884D01*
X130254775Y-73960000D01*
X130254775Y-73959999D01*
X130235712Y-73742115D01*
X130235710Y-73742105D01*
X130179105Y-73530849D01*
X130179101Y-73530840D01*
X130086668Y-73332615D01*
X130043123Y-73270428D01*
X129482962Y-73830589D01*
X129465925Y-73767007D01*
X129400099Y-73652993D01*
X129307007Y-73559901D01*
X129192993Y-73494075D01*
X129129409Y-73477037D01*
X129689571Y-72916874D01*
X129627387Y-72873333D01*
X129429159Y-72780898D01*
X129429150Y-72780894D01*
X129217894Y-72724289D01*
X129217884Y-72724287D01*
X129000001Y-72705225D01*
X128999999Y-72705225D01*
X128782115Y-72724287D01*
X128782105Y-72724289D01*
X128570849Y-72780894D01*
X128570840Y-72780898D01*
X128372614Y-72873332D01*
X128372612Y-72873333D01*
X128310428Y-72916875D01*
X128310427Y-72916875D01*
X128870590Y-73477037D01*
X128807007Y-73494075D01*
X128692993Y-73559901D01*
X128599901Y-73652993D01*
X128534075Y-73767007D01*
X128517037Y-73830590D01*
X127956875Y-73270427D01*
X127956875Y-73270428D01*
X127913333Y-73332612D01*
X127913332Y-73332614D01*
X127820898Y-73530840D01*
X127820894Y-73530849D01*
X127764289Y-73742105D01*
X127764287Y-73742115D01*
X127745225Y-73959999D01*
X127745225Y-73960000D01*
X127764287Y-74177884D01*
X127764289Y-74177894D01*
X127820894Y-74389150D01*
X127820898Y-74389159D01*
X127913333Y-74587387D01*
X127956874Y-74649571D01*
X128517037Y-74089408D01*
X128534075Y-74152993D01*
X128599901Y-74267007D01*
X128692993Y-74360099D01*
X128807007Y-74425925D01*
X128870590Y-74442962D01*
X128310427Y-75003124D01*
X128372613Y-75046667D01*
X128372615Y-75046668D01*
X128524174Y-75117341D01*
X128576614Y-75163513D01*
X128595766Y-75230706D01*
X128575551Y-75297588D01*
X128524176Y-75342105D01*
X128372358Y-75412900D01*
X128372357Y-75412900D01*
X128193121Y-75538402D01*
X128038402Y-75693121D01*
X127912900Y-75872357D01*
X127912898Y-75872361D01*
X127820426Y-76070668D01*
X127820422Y-76070677D01*
X127763793Y-76282020D01*
X127763793Y-76282024D01*
X127744723Y-76499997D01*
X125203843Y-76499997D01*
X125150142Y-76384833D01*
X125023132Y-76203445D01*
X124866555Y-76046868D01*
X124685167Y-75919858D01*
X124561907Y-75862381D01*
X124509468Y-75816210D01*
X124490316Y-75749017D01*
X124510531Y-75682136D01*
X124561908Y-75637618D01*
X124685167Y-75580142D01*
X124866555Y-75453132D01*
X125023132Y-75296555D01*
X125150142Y-75115167D01*
X125243723Y-74914480D01*
X125301035Y-74700591D01*
X125320334Y-74480000D01*
X125301035Y-74259409D01*
X125243723Y-74045520D01*
X125150142Y-73844833D01*
X125023132Y-73663445D01*
X124866555Y-73506868D01*
X124685167Y-73379858D01*
X124561907Y-73322381D01*
X124509468Y-73276210D01*
X124490316Y-73209017D01*
X124510531Y-73142136D01*
X124561908Y-73097618D01*
X124685167Y-73040142D01*
X124866555Y-72913132D01*
X125023132Y-72756555D01*
X125150142Y-72575167D01*
X125243723Y-72374480D01*
X125301035Y-72160591D01*
X125320334Y-71940000D01*
X125301035Y-71719409D01*
X125243723Y-71505520D01*
X125150142Y-71304833D01*
X125023132Y-71123445D01*
X124866555Y-70966868D01*
X124685167Y-70839858D01*
X124561907Y-70782381D01*
X124509468Y-70736210D01*
X124490316Y-70669017D01*
X124510531Y-70602136D01*
X124561908Y-70557618D01*
X124685167Y-70500142D01*
X124866555Y-70373132D01*
X125023132Y-70216555D01*
X125150142Y-70035167D01*
X125243723Y-69834480D01*
X125301035Y-69620591D01*
X125320334Y-69400000D01*
X125301035Y-69179409D01*
X125243723Y-68965520D01*
X125150142Y-68764833D01*
X125023132Y-68583445D01*
X124866555Y-68426868D01*
X124685167Y-68299858D01*
X124685163Y-68299856D01*
X124561317Y-68242106D01*
X124508877Y-68195934D01*
X124489725Y-68128741D01*
X124509941Y-68061859D01*
X124561317Y-68017342D01*
X124684911Y-67959709D01*
X124684919Y-67959705D01*
X124750341Y-67913895D01*
X124187574Y-67351128D01*
X124246853Y-67335245D01*
X124363147Y-67268102D01*
X124458102Y-67173147D01*
X124525245Y-67056853D01*
X124541128Y-66997574D01*
X125103895Y-67560341D01*
X125149705Y-67494919D01*
X125149709Y-67494911D01*
X125243249Y-67294314D01*
X125243254Y-67294300D01*
X125300538Y-67080509D01*
X125300540Y-67080499D01*
X125319832Y-66860000D01*
X125319832Y-66859999D01*
X125300540Y-66639500D01*
X125300538Y-66639490D01*
X125243254Y-66425699D01*
X125243250Y-66425690D01*
X125149706Y-66225084D01*
X125103894Y-66159657D01*
X124541128Y-66722424D01*
X124525245Y-66663147D01*
X124458102Y-66546853D01*
X124363147Y-66451898D01*
X124246853Y-66384755D01*
X124187574Y-66368871D01*
X124750341Y-65806104D01*
X124750341Y-65806103D01*
X124684920Y-65760295D01*
X124684916Y-65760293D01*
X124561316Y-65702657D01*
X124508877Y-65656484D01*
X124489725Y-65589291D01*
X124509941Y-65522410D01*
X124561312Y-65477895D01*
X124685167Y-65420142D01*
X124866555Y-65293132D01*
X125023132Y-65136555D01*
X125150142Y-64955167D01*
X125243723Y-64754480D01*
X125301035Y-64540591D01*
X125320334Y-64320000D01*
X125301035Y-64099409D01*
X125243723Y-63885520D01*
X125150142Y-63684833D01*
X125023132Y-63503445D01*
X124866555Y-63346868D01*
X124685167Y-63219858D01*
X124561907Y-63162381D01*
X124509468Y-63116210D01*
X124490316Y-63049017D01*
X124510531Y-62982136D01*
X124561908Y-62937618D01*
X124685167Y-62880142D01*
X124866555Y-62753132D01*
X125023132Y-62596555D01*
X125150142Y-62415167D01*
X125243723Y-62214480D01*
X125301035Y-62000591D01*
X125320334Y-61780000D01*
X125301035Y-61559409D01*
X125243723Y-61345520D01*
X125150142Y-61144833D01*
X125023132Y-60963445D01*
X124866555Y-60806868D01*
X124685167Y-60679858D01*
X124561907Y-60622381D01*
X124509468Y-60576210D01*
X124490316Y-60509017D01*
X124510531Y-60442136D01*
X124561908Y-60397618D01*
X124685167Y-60340142D01*
X124866555Y-60213132D01*
X125023132Y-60056555D01*
X125150142Y-59875167D01*
X125243723Y-59674480D01*
X125301035Y-59460591D01*
X125320334Y-59240000D01*
X125301035Y-59019409D01*
X125243723Y-58805520D01*
X125150142Y-58604833D01*
X125023132Y-58423445D01*
X124866555Y-58266868D01*
X124685167Y-58139858D01*
X124561907Y-58082381D01*
X124509468Y-58036210D01*
X124490316Y-57969017D01*
X124510531Y-57902136D01*
X124561908Y-57857618D01*
X124685167Y-57800142D01*
X124866555Y-57673132D01*
X125023132Y-57516555D01*
X125150142Y-57335167D01*
X125243723Y-57134480D01*
X125301035Y-56920591D01*
X125320334Y-56700000D01*
X125301035Y-56479409D01*
X125243723Y-56265520D01*
X125219216Y-56212965D01*
X125150143Y-56064836D01*
X125150142Y-56064834D01*
X125150142Y-56064833D01*
X125023132Y-55883445D01*
X124866555Y-55726868D01*
X124685167Y-55599858D01*
X124561907Y-55542381D01*
X124509468Y-55496210D01*
X124490316Y-55429017D01*
X124510531Y-55362136D01*
X124561908Y-55317618D01*
X124685167Y-55260142D01*
X124866555Y-55133132D01*
X125023132Y-54976555D01*
X125150142Y-54795167D01*
X125243723Y-54594480D01*
X125301035Y-54380591D01*
X125320334Y-54160000D01*
X125301035Y-53939409D01*
X125243723Y-53725520D01*
X125150142Y-53524833D01*
X125023132Y-53343445D01*
X124866555Y-53186868D01*
X124685167Y-53059858D01*
X124615039Y-53027157D01*
X124561317Y-53002106D01*
X124508877Y-52955934D01*
X124489725Y-52888741D01*
X124509941Y-52821859D01*
X124561317Y-52777342D01*
X124684911Y-52719709D01*
X124684919Y-52719705D01*
X124750341Y-52673895D01*
X124187574Y-52111128D01*
X124246853Y-52095245D01*
X124363147Y-52028102D01*
X124458102Y-51933147D01*
X124525245Y-51816853D01*
X124541128Y-51757574D01*
X125103895Y-52320341D01*
X125149705Y-52254919D01*
X125149709Y-52254911D01*
X125243249Y-52054314D01*
X125243254Y-52054300D01*
X125300538Y-51840509D01*
X125300540Y-51840499D01*
X125319832Y-51620000D01*
X125319832Y-51619999D01*
X125300540Y-51399500D01*
X125300538Y-51399490D01*
X125243254Y-51185699D01*
X125243250Y-51185690D01*
X125149706Y-50985084D01*
X125103894Y-50919657D01*
X124541128Y-51482424D01*
X124525245Y-51423147D01*
X124458102Y-51306853D01*
X124363147Y-51211898D01*
X124246853Y-51144755D01*
X124187574Y-51128871D01*
X124779627Y-50536819D01*
X124840950Y-50503334D01*
X124867308Y-50500500D01*
X144323274Y-50500500D01*
X144390313Y-50520185D01*
X144436068Y-50572989D01*
X144446012Y-50642147D01*
X144416987Y-50705703D01*
X144358209Y-50743477D01*
X144346741Y-50746259D01*
X143984979Y-50815982D01*
X143984960Y-50815987D01*
X143591859Y-50931411D01*
X143591847Y-50931415D01*
X143211483Y-51083690D01*
X142847315Y-51271432D01*
X142502634Y-51492943D01*
X142180590Y-51746202D01*
X142180568Y-51746222D01*
X141884941Y-52028102D01*
X141884052Y-52028950D01*
X141861930Y-52054480D01*
X141615746Y-52338591D01*
X141615735Y-52338604D01*
X141378095Y-52672322D01*
X141378089Y-52672330D01*
X141173230Y-53027157D01*
X141003030Y-53399843D01*
X141003020Y-53399868D01*
X140869024Y-53787023D01*
X140869021Y-53787033D01*
X140772427Y-54185200D01*
X140714118Y-54590743D01*
X140694623Y-55000000D01*
X140714118Y-55409256D01*
X140772427Y-55814799D01*
X140869021Y-56212966D01*
X140869024Y-56212976D01*
X141003020Y-56600131D01*
X141003030Y-56600156D01*
X141173230Y-56972842D01*
X141378089Y-57327669D01*
X141378095Y-57327677D01*
X141615735Y-57661395D01*
X141615744Y-57661405D01*
X141615745Y-57661407D01*
X141884052Y-57971050D01*
X142180578Y-58253787D01*
X142180585Y-58253792D01*
X142180590Y-58253797D01*
X142502634Y-58507056D01*
X142502636Y-58507057D01*
X142847312Y-58728566D01*
X143211482Y-58916309D01*
X143591849Y-59068585D01*
X143984969Y-59184015D01*
X143984977Y-59184016D01*
X143984979Y-59184017D01*
X144275447Y-59240000D01*
X144387281Y-59261554D01*
X144795142Y-59300500D01*
X144795148Y-59300500D01*
X145204852Y-59300500D01*
X145204858Y-59300500D01*
X145612719Y-59261554D01*
X146015031Y-59184015D01*
X146408151Y-59068585D01*
X146788518Y-58916309D01*
X147152689Y-58728566D01*
X147497364Y-58507057D01*
X147819422Y-58253787D01*
X148115948Y-57971050D01*
X148384255Y-57661407D01*
X148621914Y-57327663D01*
X148826772Y-56972838D01*
X148996974Y-56600147D01*
X149130979Y-56212965D01*
X149227573Y-55814798D01*
X149285882Y-55409252D01*
X149305377Y-55000000D01*
X149285882Y-54590748D01*
X149227573Y-54185202D01*
X149130979Y-53787035D01*
X149109688Y-53725520D01*
X148996979Y-53399868D01*
X148996974Y-53399853D01*
X148826772Y-53027162D01*
X148621914Y-52672337D01*
X148621910Y-52672330D01*
X148621904Y-52672322D01*
X148384264Y-52338604D01*
X148384253Y-52338591D01*
X148115948Y-52028950D01*
X147819422Y-51746213D01*
X147819415Y-51746207D01*
X147819409Y-51746202D01*
X147497365Y-51492943D01*
X147314795Y-51375613D01*
X147152689Y-51271434D01*
X146788518Y-51083691D01*
X146788512Y-51083688D01*
X146788509Y-51083687D01*
X146408152Y-50931415D01*
X146408140Y-50931411D01*
X146015039Y-50815987D01*
X146015020Y-50815982D01*
X145653259Y-50746259D01*
X145591156Y-50714243D01*
X145556221Y-50653734D01*
X145559546Y-50583944D01*
X145600074Y-50527029D01*
X145664939Y-50501061D01*
X145676726Y-50500500D01*
X150375500Y-50500500D01*
X150442539Y-50520185D01*
X150488294Y-50572989D01*
X150499500Y-50624500D01*
X150499500Y-102375500D01*
X150479815Y-102442539D01*
X150427011Y-102488294D01*
X150375500Y-102499500D01*
X100624500Y-102499500D01*
X100557461Y-102479815D01*
X100511706Y-102427011D01*
X100500500Y-102375500D01*
X100500500Y-101068266D01*
X100520185Y-101001227D01*
X100572989Y-100955472D01*
X100642147Y-100945528D01*
X100695624Y-100966692D01*
X100714826Y-100980138D01*
X100714830Y-100980140D01*
X100714833Y-100980142D01*
X100772551Y-101007056D01*
X100915513Y-101073720D01*
X100915515Y-101073720D01*
X100915520Y-101073723D01*
X101129409Y-101131035D01*
X101286974Y-101144820D01*
X101349998Y-101150334D01*
X101350000Y-101150334D01*
X101350002Y-101150334D01*
X101405147Y-101145509D01*
X101570591Y-101131035D01*
X101784480Y-101073723D01*
X101985167Y-100980142D01*
X102166555Y-100853132D01*
X102323132Y-100696555D01*
X102450142Y-100515167D01*
X102543723Y-100314480D01*
X102601035Y-100100591D01*
X102620334Y-99880000D01*
X102601035Y-99659409D01*
X102543723Y-99445520D01*
X102450142Y-99244833D01*
X102323132Y-99063445D01*
X102166555Y-98906868D01*
X101985167Y-98779858D01*
X101861907Y-98722381D01*
X101809468Y-98676210D01*
X101790316Y-98609017D01*
X101810531Y-98542136D01*
X101861908Y-98497618D01*
X101985167Y-98440142D01*
X102166555Y-98313132D01*
X102323132Y-98156555D01*
X102450142Y-97975167D01*
X102543723Y-97774480D01*
X102601035Y-97560591D01*
X102606336Y-97500000D01*
X105694623Y-97500000D01*
X105714118Y-97909256D01*
X105772427Y-98314799D01*
X105869021Y-98712966D01*
X105869024Y-98712976D01*
X106003020Y-99100131D01*
X106003030Y-99100156D01*
X106173230Y-99472842D01*
X106378089Y-99827669D01*
X106378095Y-99827677D01*
X106615735Y-100161395D01*
X106615744Y-100161405D01*
X106615745Y-100161407D01*
X106884052Y-100471050D01*
X107180578Y-100753787D01*
X107180585Y-100753792D01*
X107180590Y-100753797D01*
X107502634Y-101007056D01*
X107502636Y-101007057D01*
X107847312Y-101228566D01*
X108211482Y-101416309D01*
X108591849Y-101568585D01*
X108984969Y-101684015D01*
X109387281Y-101761554D01*
X109795142Y-101800500D01*
X109795148Y-101800500D01*
X110204852Y-101800500D01*
X110204858Y-101800500D01*
X110612719Y-101761554D01*
X111015031Y-101684015D01*
X111408151Y-101568585D01*
X111788518Y-101416309D01*
X112152689Y-101228566D01*
X112497364Y-101007057D01*
X112819422Y-100753787D01*
X113115948Y-100471050D01*
X113384255Y-100161407D01*
X113427562Y-100100592D01*
X113621904Y-99827677D01*
X113621910Y-99827669D01*
X113621911Y-99827666D01*
X113621914Y-99827663D01*
X113826772Y-99472838D01*
X113996974Y-99100147D01*
X114130979Y-98712965D01*
X114227573Y-98314798D01*
X114285882Y-97909252D01*
X114305377Y-97500000D01*
X114285882Y-97090748D01*
X114227573Y-96685202D01*
X114130979Y-96287035D01*
X113996974Y-95899853D01*
X113826772Y-95527162D01*
X113621914Y-95172337D01*
X113621910Y-95172330D01*
X113621904Y-95172322D01*
X113384264Y-94838604D01*
X113384253Y-94838591D01*
X113115948Y-94528950D01*
X112819422Y-94246213D01*
X112819415Y-94246207D01*
X112819409Y-94246202D01*
X112497365Y-93992943D01*
X112314795Y-93875613D01*
X112152689Y-93771434D01*
X111788518Y-93583691D01*
X111788512Y-93583688D01*
X111788509Y-93583687D01*
X111408152Y-93431415D01*
X111408140Y-93431411D01*
X111015039Y-93315987D01*
X111015020Y-93315982D01*
X110612734Y-93238448D01*
X110612722Y-93238446D01*
X110476765Y-93225464D01*
X110204858Y-93199500D01*
X109795142Y-93199500D01*
X109550425Y-93222867D01*
X109387277Y-93238446D01*
X109387265Y-93238448D01*
X108984979Y-93315982D01*
X108984960Y-93315987D01*
X108591859Y-93431411D01*
X108591847Y-93431415D01*
X108211483Y-93583690D01*
X107847315Y-93771432D01*
X107502634Y-93992943D01*
X107180590Y-94246202D01*
X107180568Y-94246222D01*
X106884055Y-94528947D01*
X106884053Y-94528949D01*
X106615746Y-94838591D01*
X106615735Y-94838604D01*
X106378095Y-95172322D01*
X106378089Y-95172330D01*
X106173230Y-95527157D01*
X106003030Y-95899843D01*
X106003020Y-95899868D01*
X105869024Y-96287023D01*
X105869021Y-96287033D01*
X105772427Y-96685200D01*
X105714118Y-97090743D01*
X105694623Y-97500000D01*
X102606336Y-97500000D01*
X102620334Y-97340000D01*
X102601035Y-97119409D01*
X102543723Y-96905520D01*
X102450142Y-96704833D01*
X102323132Y-96523445D01*
X102166555Y-96366868D01*
X101985167Y-96239858D01*
X101861907Y-96182381D01*
X101809468Y-96136210D01*
X101790316Y-96069017D01*
X101810531Y-96002136D01*
X101861908Y-95957618D01*
X101985167Y-95900142D01*
X102166555Y-95773132D01*
X102323132Y-95616555D01*
X102450142Y-95435167D01*
X102543723Y-95234480D01*
X102601035Y-95020591D01*
X102620334Y-94800000D01*
X102601035Y-94579409D01*
X102543723Y-94365520D01*
X102450142Y-94164833D01*
X102323132Y-93983445D01*
X102166555Y-93826868D01*
X101985167Y-93699858D01*
X101861907Y-93642381D01*
X101809468Y-93596210D01*
X101790316Y-93529017D01*
X101810531Y-93462136D01*
X101861908Y-93417618D01*
X101985167Y-93360142D01*
X102166555Y-93233132D01*
X102323132Y-93076555D01*
X102450142Y-92895167D01*
X102543723Y-92694480D01*
X102601035Y-92480591D01*
X102620334Y-92260000D01*
X102601035Y-92039409D01*
X102543723Y-91825520D01*
X102450142Y-91624833D01*
X102323132Y-91443445D01*
X102166555Y-91286868D01*
X101985167Y-91159858D01*
X101861907Y-91102381D01*
X101809468Y-91056210D01*
X101790316Y-90989017D01*
X101810531Y-90922136D01*
X101861908Y-90877618D01*
X101985167Y-90820142D01*
X102166555Y-90693132D01*
X102323132Y-90536555D01*
X102450142Y-90355167D01*
X102543723Y-90154480D01*
X102601035Y-89940591D01*
X102620334Y-89720000D01*
X102601035Y-89499409D01*
X102543723Y-89285520D01*
X102450142Y-89084833D01*
X102323132Y-88903445D01*
X102166555Y-88746868D01*
X101985167Y-88619858D01*
X101861907Y-88562381D01*
X101809468Y-88516210D01*
X101790316Y-88449017D01*
X101810531Y-88382136D01*
X101861908Y-88337618D01*
X101985167Y-88280142D01*
X102166555Y-88153132D01*
X102323132Y-87996555D01*
X102450142Y-87815167D01*
X102543723Y-87614480D01*
X102601035Y-87400591D01*
X102620334Y-87180000D01*
X102601035Y-86959409D01*
X102543723Y-86745520D01*
X102450142Y-86544833D01*
X102323132Y-86363445D01*
X102166555Y-86206868D01*
X101985167Y-86079858D01*
X101985163Y-86079856D01*
X101861317Y-86022106D01*
X101808877Y-85975934D01*
X101789725Y-85908741D01*
X101809941Y-85841859D01*
X101861317Y-85797342D01*
X101984911Y-85739709D01*
X101984919Y-85739705D01*
X102050341Y-85693895D01*
X101487574Y-85131128D01*
X101546853Y-85115245D01*
X101663147Y-85048102D01*
X101758102Y-84953147D01*
X101825245Y-84836853D01*
X101841128Y-84777574D01*
X102403895Y-85340341D01*
X102449705Y-85274919D01*
X102449709Y-85274911D01*
X102543249Y-85074314D01*
X102543254Y-85074300D01*
X102600538Y-84860509D01*
X102600540Y-84860499D01*
X102619832Y-84640000D01*
X102619832Y-84639999D01*
X102600540Y-84419500D01*
X102600538Y-84419490D01*
X102543254Y-84205699D01*
X102543250Y-84205690D01*
X102449706Y-84005084D01*
X102403894Y-83939657D01*
X101841128Y-84502424D01*
X101825245Y-84443147D01*
X101758102Y-84326853D01*
X101663147Y-84231898D01*
X101546853Y-84164755D01*
X101487574Y-84148871D01*
X102050341Y-83586104D01*
X102050341Y-83586103D01*
X101984920Y-83540295D01*
X101984916Y-83540293D01*
X101861316Y-83482657D01*
X101808877Y-83436484D01*
X101789725Y-83369291D01*
X101809941Y-83302410D01*
X101861312Y-83257895D01*
X101985167Y-83200142D01*
X102166555Y-83073132D01*
X102323132Y-82916555D01*
X102450142Y-82735167D01*
X102543723Y-82534480D01*
X102601035Y-82320591D01*
X102620334Y-82100000D01*
X102601035Y-81879409D01*
X102543723Y-81665520D01*
X102450142Y-81464833D01*
X102323132Y-81283445D01*
X102166555Y-81126868D01*
X101985167Y-80999858D01*
X101861907Y-80942381D01*
X101809468Y-80896210D01*
X101790316Y-80829017D01*
X101810531Y-80762136D01*
X101861908Y-80717618D01*
X101985167Y-80660142D01*
X102166555Y-80533132D01*
X102323132Y-80376555D01*
X102450142Y-80195167D01*
X102543723Y-79994480D01*
X102601035Y-79780591D01*
X102620334Y-79560000D01*
X102601035Y-79339409D01*
X102543723Y-79125520D01*
X102450142Y-78924833D01*
X102323132Y-78743445D01*
X102166555Y-78586868D01*
X101985167Y-78459858D01*
X101861907Y-78402381D01*
X101809468Y-78356210D01*
X101790316Y-78289017D01*
X101810531Y-78222136D01*
X101861908Y-78177618D01*
X101985167Y-78120142D01*
X102166555Y-77993132D01*
X102323132Y-77836555D01*
X102450142Y-77655167D01*
X102543723Y-77454480D01*
X102601035Y-77240591D01*
X102620334Y-77020000D01*
X102601035Y-76799409D01*
X102543723Y-76585520D01*
X102450142Y-76384833D01*
X102323132Y-76203445D01*
X102166555Y-76046868D01*
X101985167Y-75919858D01*
X101861907Y-75862381D01*
X101809468Y-75816210D01*
X101790316Y-75749017D01*
X101810531Y-75682136D01*
X101861908Y-75637618D01*
X101985167Y-75580142D01*
X102166555Y-75453132D01*
X102323132Y-75296555D01*
X102450142Y-75115167D01*
X102543723Y-74914480D01*
X102601035Y-74700591D01*
X102620334Y-74480000D01*
X102601035Y-74259409D01*
X102543723Y-74045520D01*
X102450142Y-73844833D01*
X102323132Y-73663445D01*
X102166555Y-73506868D01*
X101985167Y-73379858D01*
X101861907Y-73322381D01*
X101809468Y-73276210D01*
X101790316Y-73209017D01*
X101810531Y-73142136D01*
X101861908Y-73097618D01*
X101985167Y-73040142D01*
X102166555Y-72913132D01*
X102323132Y-72756555D01*
X102450142Y-72575167D01*
X102543723Y-72374480D01*
X102601035Y-72160591D01*
X102620334Y-71940000D01*
X102601035Y-71719409D01*
X102543723Y-71505520D01*
X102450142Y-71304833D01*
X102323132Y-71123445D01*
X102166555Y-70966868D01*
X101985167Y-70839858D01*
X101861907Y-70782381D01*
X101809468Y-70736210D01*
X101790316Y-70669017D01*
X101810531Y-70602136D01*
X101861908Y-70557618D01*
X101985167Y-70500142D01*
X102166555Y-70373132D01*
X102323132Y-70216555D01*
X102450142Y-70035167D01*
X102543723Y-69834480D01*
X102601035Y-69620591D01*
X102620334Y-69400000D01*
X102601035Y-69179409D01*
X102543723Y-68965520D01*
X102450142Y-68764833D01*
X102323132Y-68583445D01*
X102166555Y-68426868D01*
X101985167Y-68299858D01*
X101861907Y-68242381D01*
X101809468Y-68196210D01*
X101790316Y-68129017D01*
X101810531Y-68062136D01*
X101861908Y-68017618D01*
X101862500Y-68017342D01*
X101985167Y-67960142D01*
X102166555Y-67833132D01*
X102323132Y-67676555D01*
X102450142Y-67495167D01*
X102543723Y-67294480D01*
X102601035Y-67080591D01*
X102620334Y-66860000D01*
X102601035Y-66639409D01*
X102543723Y-66425520D01*
X102450142Y-66224833D01*
X102323132Y-66043445D01*
X102166555Y-65886868D01*
X101985167Y-65759858D01*
X101861907Y-65702381D01*
X101809468Y-65656210D01*
X101790316Y-65589017D01*
X101810531Y-65522136D01*
X101861908Y-65477618D01*
X101985167Y-65420142D01*
X102166555Y-65293132D01*
X102323132Y-65136555D01*
X102450142Y-64955167D01*
X102543723Y-64754480D01*
X102601035Y-64540591D01*
X102620334Y-64320000D01*
X102601035Y-64099409D01*
X102543723Y-63885520D01*
X102450142Y-63684833D01*
X102323132Y-63503445D01*
X102166555Y-63346868D01*
X101985167Y-63219858D01*
X101861907Y-63162381D01*
X101809468Y-63116210D01*
X101790316Y-63049017D01*
X101810531Y-62982136D01*
X101861908Y-62937618D01*
X101985167Y-62880142D01*
X102166555Y-62753132D01*
X102323132Y-62596555D01*
X102450142Y-62415167D01*
X102543723Y-62214480D01*
X102601035Y-62000591D01*
X102620334Y-61780000D01*
X102601035Y-61559409D01*
X102543723Y-61345520D01*
X102450142Y-61144833D01*
X102323132Y-60963445D01*
X102166555Y-60806868D01*
X101985167Y-60679858D01*
X101861907Y-60622381D01*
X101809468Y-60576210D01*
X101790316Y-60509017D01*
X101810531Y-60442136D01*
X101861908Y-60397618D01*
X101985167Y-60340142D01*
X102166555Y-60213132D01*
X102323132Y-60056555D01*
X102450142Y-59875167D01*
X102543723Y-59674480D01*
X102601035Y-59460591D01*
X102620334Y-59240000D01*
X102601035Y-59019409D01*
X102543723Y-58805520D01*
X102450142Y-58604833D01*
X102323132Y-58423445D01*
X102166555Y-58266868D01*
X101985167Y-58139858D01*
X101861907Y-58082381D01*
X101809468Y-58036210D01*
X101790316Y-57969017D01*
X101810531Y-57902136D01*
X101861908Y-57857618D01*
X101985167Y-57800142D01*
X102166555Y-57673132D01*
X102323132Y-57516555D01*
X102450142Y-57335167D01*
X102543723Y-57134480D01*
X102601035Y-56920591D01*
X102620334Y-56700000D01*
X102601035Y-56479409D01*
X102543723Y-56265520D01*
X102519216Y-56212965D01*
X102450143Y-56064836D01*
X102450142Y-56064834D01*
X102450142Y-56064833D01*
X102323132Y-55883445D01*
X102166555Y-55726868D01*
X101985167Y-55599858D01*
X101861907Y-55542381D01*
X101809468Y-55496210D01*
X101790316Y-55429017D01*
X101810531Y-55362136D01*
X101861908Y-55317618D01*
X101985167Y-55260142D01*
X102166555Y-55133132D01*
X102323132Y-54976555D01*
X102450142Y-54795167D01*
X102543723Y-54594480D01*
X102601035Y-54380591D01*
X102620334Y-54160000D01*
X102601035Y-53939409D01*
X102543723Y-53725520D01*
X102450142Y-53524833D01*
X102323132Y-53343445D01*
X102166555Y-53186868D01*
X101985167Y-53059858D01*
X101861907Y-53002381D01*
X101809468Y-52956210D01*
X101790316Y-52889017D01*
X101810531Y-52822136D01*
X101861908Y-52777618D01*
X101862500Y-52777342D01*
X101985167Y-52720142D01*
X102166555Y-52593132D01*
X102323132Y-52436555D01*
X102450142Y-52255167D01*
X102543723Y-52054480D01*
X102601035Y-51840591D01*
X102620334Y-51620000D01*
X102601035Y-51399409D01*
X102543723Y-51185520D01*
X102450142Y-50984833D01*
X102323132Y-50803445D01*
X102231868Y-50712181D01*
X102198383Y-50650858D01*
X102203367Y-50581166D01*
X102245239Y-50525233D01*
X102310703Y-50500816D01*
X102319549Y-50500500D01*
X109323274Y-50500500D01*
X109390313Y-50520185D01*
G37*
%TD.AperFunction*%
%TD*%
M02*
