M48
; DRILL file {KiCad 8.0.7-8.0.7-0~ubuntu22.04.1} date 2024-12-29T16:10:53-0700
; FORMAT={-:-/ absolute / inch / decimal}
; #@! TF.CreationDate,2024-12-29T16:10:53-07:00
; #@! TF.GenerationSoftware,Kicad,Pcbnew,8.0.7-8.0.7-0~ubuntu22.04.1
; #@! TF.FileFunction,Plated,1,2,PTH
FMAT,2
INCH
; #@! TA.AperFunction,Plated,PTH,ComponentDrill
T1C0.0394
; #@! TA.AperFunction,Plated,PTH,ComponentDrill
T2C0.0402
; #@! TA.AperFunction,Plated,PTH,ComponentDrill
T3C0.1693
%
G90
G05
T1
X5.0787Y-2.9118
X5.0787Y-3.0118
X5.0787Y-3.1118
T2
X3.9902Y-2.0323
X3.9902Y-2.1323
X3.9902Y-2.2323
X3.9902Y-2.3323
X3.9902Y-2.4323
X3.9902Y-2.5323
X3.9902Y-2.6323
X3.9902Y-2.7323
X3.9902Y-2.8323
X3.9902Y-2.9323
X3.9902Y-3.0323
X3.9902Y-3.1323
X3.9902Y-3.2323
X3.9902Y-3.3323
X3.9902Y-3.4323
X3.9902Y-3.5323
X3.9902Y-3.6323
X3.9902Y-3.7323
X3.9902Y-3.8323
X3.9902Y-3.9323
X4.8839Y-2.0323
X4.8839Y-2.1323
X4.8839Y-2.2323
X4.8839Y-2.3323
X4.8839Y-2.4323
X4.8839Y-2.5323
X4.8839Y-2.6323
X4.8839Y-2.7323
X4.8839Y-2.8323
X4.8839Y-2.9323
X4.8839Y-3.0323
X4.8839Y-3.1323
X4.8839Y-3.2323
X4.8839Y-3.3323
X4.8839Y-3.4323
X4.8839Y-3.5323
X4.8839Y-3.6323
X4.8839Y-3.7323
X4.8839Y-3.8323
X4.8839Y-3.9323
T3
X4.3307Y-2.1654
X4.3307Y-3.8386
X5.7087Y-2.1654
X5.7087Y-3.8386
M30
